<?xml version="1.0" encoding="UTF-8"?>
<svg version="1.1" xmlns="http://www.w3.org/2000/svg" width="1340" height="845">
<path d="M0 0 C442.2 0 884.4 0 1340 0 C1340 278.85 1340 557.7 1340 845 C897.8 845 455.6 845 0 845 C0 566.15 0 287.3 0 0 Z " fill="#FEFEFE" transform="translate(0,0)"/>
<path d="M0 0 C0.90105469 0.515625 1.80210937 1.03125 2.73046875 1.5625 C16.58582791 9.93928934 24.88343586 21.33093167 29.30859375 37.02734375 C31.10371444 44.74534853 31.2180518 52.16729998 31.25 60.0625 C31.270625 61.30966797 31.29125 62.55683594 31.3125 63.84179688 C31.38730042 81.82194781 26.23332723 99.25556544 13.8125 112.625 C-1.31432182 126.98548503 -20.9851174 130.72591346 -41.1328125 130.21875 C-57.51103053 129.57822524 -71.93426071 126.34266934 -85 116 C-85.9075 115.360625 -86.815 114.72125 -87.75 114.0625 C-99.27115884 103.50143773 -106.36323929 87.39080278 -107.15527344 71.97851562 C-107.60475285 59.16278035 -107.99782038 46.32086885 -104 34 C-103.7215625 33.10925781 -103.443125 32.21851563 -103.15625 31.30078125 C-97.78249636 16.17551777 -86.067745 4.77775246 -71.86132812 -2.17480469 C-50.87941812 -11.47685818 -20.24689367 -11.59144195 0 0 Z " fill="#21A94B" transform="translate(685,375)"/>
<path d="M0 0 C17.3559375 -0.0928125 17.3559375 -0.0928125 35.0625 -0.1875 C40.49601929 -0.22846802 40.49601929 -0.22846802 46.03930664 -0.27026367 C50.54187012 -0.28381348 50.54187012 -0.28381348 52.6650238 -0.28633118 C54.11439293 -0.29086877 55.56375243 -0.3012716 57.01304626 -0.31672668 C75.66520289 -0.5052856 92.69441856 2.03488657 106.75 15.52734375 C122.97877608 33.36209247 124.10856608 56.68885963 123.24267578 79.60546875 C122.41870637 91.13109316 119.1908134 102.7990274 112 112 C111.3296875 112.85980469 110.659375 113.71960938 109.96875 114.60546875 C99.44121198 127.15325614 85.83490177 131.84464398 70 134 C64.41717524 134.45879977 58.81898863 134.35444608 53.22265625 134.29296875 C51.84794483 134.28853994 50.47322828 134.28549052 49.09851074 134.28381348 C44.08642837 134.26829273 39.07445536 134.22641109 34.0625 134.1875 C22.821875 134.125625 11.58125 134.06375 0 134 C0 89.78 0 45.56 0 0 Z " fill="#21A94B" transform="translate(1093,369)"/>
<path d="M0 0 C13.365 -0.061875 26.73 -0.12375 40.5 -0.1875 C44.68751953 -0.21481201 48.87503906 -0.24212402 53.18945312 -0.27026367 C58.38574219 -0.28381348 58.38574219 -0.28381348 60.83435059 -0.28633118 C62.50950527 -0.29087528 64.18465146 -0.30129259 65.85974121 -0.31672668 C82.215021 -0.45961401 99.12905913 -0.38504315 111.8125 11.3125 C119.2234951 19.23814754 121.52746959 29.14978469 121.3125 39.77734375 C120.21740463 51.07051472 115.88121047 59.60633028 107.6875 67.25 C102.81055106 71.22742281 97.10558477 73.6079818 91 75 C91.60585938 75.29390625 92.21171875 75.5878125 92.8359375 75.890625 C104.85233601 82.3240199 111.1720141 92.39840966 116.7734375 104.33984375 C119.98067876 111.17075278 123.59694394 117.79749257 127.14013672 124.45825195 C127.6404541 125.40788818 128.14077148 126.35752441 128.65625 127.3359375 C129.10806641 128.18720215 129.55988281 129.0384668 130.02539062 129.91552734 C131 132 131 132 131 134 C124.61565651 134.3822666 118.23427553 134.64370134 111.84106445 134.82397461 C109.67034731 134.89913906 107.5003832 135.00131852 105.33227539 135.1315918 C87.8420576 136.15570329 87.8420576 136.15570329 83.16375732 132.60720825 C80.11557865 129.09326174 78.29498283 125.12661343 76.67550659 120.7975769 C75.85862086 118.62377884 74.80354831 116.63149897 73.6875 114.59765625 C73.130625 113.43105469 72.57375 112.26445312 72 111.0625 C69.23673083 105.41701298 66.38813997 99.82916738 63.375 94.3125 C62.85292969 93.32358765 62.85292969 93.32358765 62.3203125 92.31469727 C59.86116338 87.87756183 57.36799685 84.77372798 53 82 C49.37 81.34 45.74 80.68 42 80 C42 97.82 42 115.64 42 134 C28.14 134 14.28 134 0 134 C0 89.78 0 45.56 0 0 Z " fill="#21A94B" transform="translate(438,369)"/>
<path d="M0 0 C12.87 0 25.74 0 39 0 C49.91778846 15.28490385 49.91778846 15.28490385 55.06542969 23.07861328 C59.01783226 29.04712024 63.0790664 34.94281484 67.1171875 40.85351562 C74.15874911 51.18422772 81.06336596 61.59504895 88 72 C88.33 48.24 88.66 24.48 89 0 C101.87 0 114.74 0 128 0 C128 44.22 128 88.44 128 134 C115.13 134 102.26 134 89 134 C81.15053265 122.78647522 81.15053265 122.78647522 78.16796875 118.265625 C77.52021484 117.28722656 76.87246094 116.30882812 76.20507812 115.30078125 C75.53927734 114.29402344 74.87347656 113.28726563 74.1875 112.25 C69.88295102 105.76369332 65.57112419 99.3017875 61 93 C53.74550983 82.84371376 46.92326685 72.38490028 40 62 C39.67 85.76 39.34 109.52 39 134 C26.13 134 13.26 134 0 134 C0 89.78 0 45.56 0 0 Z " fill="#20A94A" transform="translate(937,369)"/>
<path d="M0 0 C0.05035186 4.28261912 0.08615671 8.56507039 0.10986328 12.84790039 C0.11977108 14.29747528 0.13330114 15.74703103 0.15087891 17.1965332 C0.44087642 41.76955764 -3.63295839 65.18819299 -21.20922852 83.59350586 C-32.9767832 95.17325103 -47.91515401 101.2283268 -63.5 105.875 C-72.18689253 108.48436088 -79.39767868 112.04240157 -87 117 C-87.78890625 117.48082031 -88.5778125 117.96164062 -89.390625 118.45703125 C-96.78820445 123.35581001 -101.79565936 131.4751566 -104 140 C-104.29510421 142.83930362 -104.33173369 145.64700291 -104.3125 148.5 C-104.31165405 149.67671265 -104.31165405 149.67671265 -104.31079102 150.87719727 C-104.21141204 157.28356847 -103.19155776 163.07208051 -101.55859375 169.27734375 C-101 172 -101 172 -102 175 C-104.27100741 171.45358442 -105.80090026 168.03207975 -107.1875 164.0625 C-112.13391088 150.9611955 -118.62248 137.82440309 -131.625 131.5 C-136.97365011 129.10409409 -142.45166415 127.06092321 -147.94335938 125.02026367 C-168.09089663 117.52946668 -183.38914608 107.60713515 -192.65234375 87.39453125 C-196.34512028 78.73135089 -200 69.50781953 -200 60 C-177.68366577 59.58842826 -154.97612313 59.99328975 -137 75 C-136.22269531 75.60585938 -135.44539062 76.21171875 -134.64453125 76.8359375 C-114.13627891 93.66850642 -112.50528967 123.5672293 -109 148 C-108.94739014 147.1536499 -108.89478027 146.3072998 -108.84057617 145.43530273 C-107.56709797 126.80655145 -102.05054785 110.78092703 -92 95 C-91.2360176 93.73965063 -90.47449226 92.47781002 -89.71484375 91.21484375 C-84.69286834 82.92508383 -79.3322912 75.36338994 -73 68 C-71.53741 66.21180648 -70.07913832 64.42007306 -68.625 62.625 C-63.49187376 56.35217615 -58.2582749 50.1679006 -53 44 C-52.32582031 43.19949219 -51.65164063 42.39898437 -50.95703125 41.57421875 C-47.56899684 37.60281418 -44.1180276 34.21407032 -40 31 C-52.47191549 36.96871469 -63.8281654 46.7231599 -74 56 C-74.5357666 56.4851709 -75.0715332 56.9703418 -75.62353516 57.47021484 C-84.89955269 65.98125674 -92.15641304 75.46098033 -99 86 C-99.71414063 87.09828125 -100.42828125 88.1965625 -101.1640625 89.328125 C-105.22154111 95.92368597 -107.87655858 102.56136049 -110 110 C-110.66 110 -111.32 110 -112 110 C-115.75869101 84.76307462 -115.0550037 61.17993153 -99.37011719 39.74951172 C-89.98304162 27.76309271 -78.46810654 18.92939913 -64 14 C-62.50339844 13.47599609 -62.50339844 13.47599609 -60.9765625 12.94140625 C-54.35438983 10.75272206 -47.98843344 9.49314483 -41.08203125 8.625 C-35.91096735 7.89886739 -30.83822562 6.72168605 -25.75 5.5625 C-24.83935791 5.3569751 -23.92871582 5.1514502 -22.99047852 4.93969727 C-17.67249166 3.70913256 -12.48196159 2.27817177 -7.29785156 0.56616211 C-4.79005559 -0.0517277 -2.57299374 -0.09749634 0 0 Z " fill="#7CB305" transform="translate(812,192)"/>
<path d="M0 0 C5.97439031 5.83381642 10.81497802 13.25866332 13.32421875 21.26953125 C13.32421875 22.58953125 13.32421875 23.90953125 13.32421875 25.26953125 C8.11044598 26.26994314 2.89600446 27.26676431 -2.3190918 28.26025391 C-4.09336928 28.59878339 -5.86745948 28.93829593 -7.64135742 29.27880859 C-10.19010685 29.76788331 -12.73950731 30.25342689 -15.2890625 30.73828125 C-16.08290848 30.89139771 -16.87675446 31.04451416 -17.69465637 31.20227051 C-20.73433978 31.77752171 -23.57445547 32.26953125 -26.67578125 32.26953125 C-26.90652344 31.7384375 -27.13726562 31.20734375 -27.375 30.66015625 C-30.23016291 24.47585082 -32.99172241 21.61156067 -39.17578125 18.51953125 C-46.34555079 16.06635869 -54.60034392 16.04287148 -61.61328125 18.95703125 C-69.13471246 22.89682855 -73.85593954 27.856869 -76.5859375 35.9765625 C-80.66791371 51.07038151 -80.76372524 70.22524866 -73.078125 84.1484375 C-68.97621453 90.35271991 -62.72032169 93.49175924 -55.67578125 95.26953125 C-44.90876723 96.53099206 -35.07696849 94.49320607 -25.42578125 89.6328125 C-22.67578125 88.26953125 -22.67578125 88.26953125 -20.67578125 88.26953125 C-20.67578125 83.97953125 -20.67578125 79.68953125 -20.67578125 75.26953125 C-29.91578125 75.26953125 -39.15578125 75.26953125 -48.67578125 75.26953125 C-48.67578125 66.02953125 -48.67578125 56.78953125 -48.67578125 47.26953125 C-27.55578125 47.26953125 -6.43578125 47.26953125 15.32421875 47.26953125 C15.65421875 56.46828125 15.98421875 65.66703125 16.32421875 75.14453125 C16.46988281 78.02929199 16.61554688 80.91405273 16.765625 83.88623047 C17.28384488 101.40933353 17.28384488 101.40933353 13.83407593 106.44448853 C10.20569045 109.84506639 6.1131228 111.81487554 1.46818542 113.4828949 C-1.45227457 114.55443207 -4.19477875 115.9262494 -6.98059082 117.30401611 C-28.8829575 127.80928471 -58.05089766 128.77272417 -81 121.16796875 C-96.7381402 115.04648386 -108.10335509 104.55982672 -115.08203125 89.16796875 C-123.42511315 68.84383319 -123.21059227 44.62304696 -115.55078125 24.08203125 C-109.03217542 9.55708973 -97.88757855 -0.92029716 -83.67578125 -7.73046875 C-58.94769556 -16.69541548 -21.07378526 -17.83166445 0 0 Z " fill="#22A94B" transform="translate(397.67578125,379.73046875)"/>
<path d="M0 0 C15.18 0 30.36 0 46 0 C55.18060807 22.95152018 55.18060807 22.95152018 58.62890625 32.359375 C59.02108337 33.42192505 59.4132605 34.4844751 59.81732178 35.57922363 C60.64438124 37.8206646 61.47029176 40.06252983 62.29507446 42.30480957 C64.47728756 48.23662918 66.66900005 54.16494049 68.859375 60.09375 C69.51411552 61.86700653 69.51411552 61.86700653 70.18208313 63.67608643 C74.19675266 74.54488536 78.2448332 85.40093844 82.3125 96.25 C82.60665802 97.03596558 82.90081604 97.82193115 83.20388794 98.63171387 C84.04742357 100.88516033 84.8923219 103.13808736 85.73828125 105.390625 C86.1346151 106.44597443 86.1346151 106.44597443 86.53895569 107.52264404 C87.98938884 111.36894549 89.46658001 115.20345985 90.97021484 119.02929688 C91.29539597 119.85766052 91.62057709 120.68602417 91.95561218 121.53948975 C92.58441916 123.13698588 93.21629806 124.73327718 93.85163879 126.32818604 C96 131.7809638 96 131.7809638 96 134 C81.81 134 67.62 134 53 134 C49 124 49 124 46 112 C30.49 112.33 14.98 112.66 -1 113 C-2.98 119.93 -4.96 126.86 -7 134 C-20.86 134 -34.72 134 -49 134 C-46.74998482 123.87493171 -46.74998482 123.87493171 -45.01977539 119.29785156 C-44.63461258 118.26996521 -44.24944977 117.24207886 -43.85261536 116.18304443 C-43.2314106 114.55329681 -43.2314106 114.55329681 -42.59765625 112.890625 C-42.16390182 111.73822327 -41.7301474 110.58582153 -41.2832489 109.39849854 C-40.12135661 106.31509838 -38.95418284 103.2337672 -37.78440857 100.15335083 C-36.57421614 96.96261329 -35.3709866 93.76925209 -34.16699219 90.57617188 C-31.85094546 84.43723895 -29.5274183 78.30117391 -27.20074463 72.16625977 C-26.15944067 69.42043125 -25.11911621 66.67423622 -24.07958984 63.92773438 C-21.82341743 57.96694519 -19.56329366 52.00768419 -17.296875 46.05078125 C-13.79899508 36.8501612 -10.35107707 27.63075007 -6.90234375 18.41162109 C-5.60351518 14.94034713 -4.30175832 11.47017638 -3 8 C-2.01 5.36 -1.02 2.72 0 0 Z " fill="#21A94A" transform="translate(173,369)"/>
<path d="M0 0 C33.99 0 67.98 0 103 0 C103 9.57 103 19.14 103 29 C82.87 29 62.74 29 42 29 C42 36.59 42 44.18 42 52 C59.16 52 76.32 52 94 52 C94 60.91 94 69.82 94 79 C76.84 79 59.68 79 42 79 C42 97.15 42 115.3 42 134 C28.14 134 14.28 134 0 134 C0 89.78 0 45.56 0 0 Z " fill="#21A94B" transform="translate(739,369)"/>
<path d="M0 0 C13.53 0 27.06 0 41 0 C41 44.22 41 88.44 41 134 C27.47 134 13.94 134 0 134 C0 89.78 0 45.56 0 0 Z " fill="#20AA4A" transform="translate(866,369)"/>
<path d="M0 0 C22.31633423 -0.41157174 45.02387687 -0.00671025 63 15 C63.77730469 15.60585938 64.55460938 16.21171875 65.35546875 16.8359375 C86.68522915 34.34277602 89.04136079 68.16954913 91.61328125 93.78515625 C91.74509569 95.1898343 91.87520936 96.59468055 92 98 C89.81915447 95.95440374 88.24051302 93.95898601 86.73046875 91.3828125 C86.31603516 90.69316406 85.90160156 90.00351562 85.47460938 89.29296875 C84.6230143 87.85856733 83.77656832 86.42109519 82.93554688 84.98046875 C78.5858814 77.78240909 73.73495988 73.91803026 65.875 70.6875 C64.85369995 70.25147461 64.85369995 70.25147461 63.81176758 69.80664062 C59.86681781 68.13815138 55.89061042 66.56112376 51.89453125 65.01953125 C31.94394098 57.30981796 16.59163894 47.54404335 7.34375 27.390625 C3.65526494 18.72702582 0 9.50662981 0 0 Z " fill="#3C8F09" transform="translate(612,252)"/>
<path d="M0 0 C6.73686033 5.00082325 10.28058978 11.88041244 12 20 C12.22533205 23.8510951 12.18515815 27.70546577 12.1875 31.5625 C12.19974609 32.59697266 12.21199219 33.63144531 12.22460938 34.69726562 C12.24587844 46.01949852 11.18818651 55.88728758 4 65 C-2.51233276 71.2342781 -9.88684396 72.49092715 -18.68359375 72.30078125 C-26.1306371 71.62537214 -31.25023483 69.20725577 -36.4375 63.8125 C-45.47480798 52.73450957 -44.77722724 37.5717909 -44 24 C-42.88619356 14.01983019 -39.73272787 6.6614091 -31.83203125 0.32421875 C-22.43363539 -6.46907804 -9.8091142 -5.83711373 0 0 Z " fill="#FCFEFD" transform="translate(663,402)"/>
<path d="M0 0 C25.05405405 0 25.05405405 0 33 7 C41.65194862 19.19540881 41.3625145 36.42915832 39.53125 50.63671875 C38.04606931 57.54104088 35.34975641 65.09056028 29.23046875 69.18359375 C19.90231998 73.43105147 10.16917604 72 0 72 C0 48.24 0 24.48 0 0 Z " fill="#FBFEFB" transform="translate(1135,400)"/>
<path d="M0 0 C0 3 0 3 -1.328125 4.33203125 C-1.96234375 4.82058594 -2.5965625 5.30914062 -3.25 5.8125 C-8.96802241 10.61764515 -13.57649335 16.27463081 -18.33642578 21.99951172 C-20.04917421 24.05913318 -21.77247075 26.10963102 -23.49609375 28.16015625 C-33.55181231 40.18317812 -43.21809949 52.35981483 -51 66 C-51.84304688 67.36125 -51.84304688 67.36125 -52.703125 68.75 C-63.58790556 86.54424996 -67.36708895 104.33218069 -68 125 C-68.33 125 -68.66 125 -69 125 C-69.16081055 124.00371582 -69.32162109 123.00743164 -69.48730469 121.98095703 C-73.53782191 96.3530324 -73.53782191 96.3530324 -79 71 C-78.34 71 -77.68 71 -77 71 C-76.34 72.98 -75.68 74.96 -75 77 C-75.01571045 75.86457764 -75.0314209 74.72915527 -75.04760742 73.55932617 C-75.10188032 69.34943731 -75.13634037 65.13957941 -75.16479492 60.92944336 C-75.1798876 59.10679933 -75.20036395 57.28419164 -75.22631836 55.46166992 C-75.26268103 52.842845 -75.27972124 50.22449993 -75.29296875 47.60546875 C-75.30845261 46.78974899 -75.32393646 45.97402924 -75.33988953 45.1335907 C-75.34160054 39.39055578 -75.34160054 39.39055578 -73.47871399 37.26069641 C-72.99073837 36.8446666 -72.50276276 36.42863678 -72 36 C-72.10828125 37.12921875 -72.10828125 37.12921875 -72.21875 38.28125 C-73.47037416 52.60539317 -73.06537894 66.69348281 -72 81 C-71.34 81 -70.68 81 -70 81 C-69.9175 80.195625 -69.835 79.39125 -69.75 78.5625 C-66.10966056 61.27088765 -52.83738605 45.49609493 -41 33 C-40.20207031 32.13761719 -39.40414062 31.27523437 -38.58203125 30.38671875 C-27.21876624 18.50772311 -13.5913627 9.14757802 0 0 Z " fill="#F7FBEF" transform="translate(772,221)"/>
<path d="M0 0 C3.96 -0.061875 7.92 -0.12375 12 -0.1875 C13.23234375 -0.21481201 14.4646875 -0.24212402 15.734375 -0.27026367 C23.30381697 -0.3272551 29.44658623 0.06843364 35.5 5.0625 C37.71370348 9.39766932 37.74145654 13.2302177 37 18 C35.07121678 22.24332309 33.68758035 23.63745764 29.5625 25.8125 C24.91169076 27.36276975 20.8167912 28.12771038 15.91796875 28.09765625 C15.0777417 28.09515869 14.23751465 28.09266113 13.37182617 28.09008789 C12.32099854 28.08098389 11.2701709 28.07187988 10.1875 28.0625 C5.1446875 28.0315625 5.1446875 28.0315625 0 28 C0 18.76 0 9.52 0 0 Z " fill="#FBFEFB" transform="translate(480,396)"/>
<path d="M0 0 C-3.64149963 13.381771 -8.06306147 26.83295532 -20 35 C-23.15463513 36.6122455 -26.39731126 37.94097311 -29.6875 39.25 C-30.54150391 39.600625 -31.39550781 39.95125 -32.27539062 40.3125 C-35.49752473 41.62868989 -38.69717425 42.89905808 -42 44 C-42.647379 34.12747018 -40.06910321 25.61294631 -33.74609375 17.90234375 C-25.04779541 8.42567419 -13.35691687 0 0 0 Z " fill="#4D9106" transform="translate(753,307)"/>
<path d="M0 0 C13.53 -0.020625 27.06 -0.04125 41 -0.0625 C47.39052734 -0.07615601 47.39052734 -0.07615601 53.91015625 -0.09008789 C59.14257812 -0.09460449 59.14257812 -0.09460449 61.59790039 -0.09544373 C63.30005149 -0.09697178 65.00220156 -0.10047314 66.7043457 -0.10557556 C69.29380147 -0.11294478 71.8831915 -0.11390433 74.47265625 -0.11352539 C75.22144547 -0.1171235 75.97023468 -0.12072161 76.74171448 -0.12442875 C81.5753277 -0.11502349 86.21331589 0.31948341 91 1 C91 1.33 91 1.66 91 2 C61.96 2 32.92 2 3 2 C3 44.9 3 87.8 3 132 C14.88 132 26.76 132 39 132 C39 114.51 39 97.02 39 79 C42.69418201 77.768606 45.2056261 78.35567236 49 79 C49 79.33 49 79.66 49 80 C46.69 80 44.38 80 42 80 C42 97.82 42 115.64 42 134 C28.14 134 14.28 134 0 134 C0 89.78 0 45.56 0 0 Z " fill="#45A651" transform="translate(438,369)"/>
<path d="M0 0 C2 1 2 1 2.7902832 2.95507812 C3.16672974 4.2302832 3.16672974 4.2302832 3.55078125 5.53125 C3.8348584 6.47935547 4.11893555 7.42746094 4.41162109 8.40429688 C4.85755615 9.93666992 4.85755615 9.93666992 5.3125 11.5 C5.62010254 12.53705078 5.92770508 13.57410156 6.24462891 14.64257812 C6.87052089 16.75557383 7.49324449 18.86951063 8.11279297 20.984375 C8.90631824 23.68157484 9.71584828 26.37304432 10.53515625 29.0625 C10.98200581 30.5415957 11.42863626 32.02075762 11.875 33.5 C12.07778564 34.16193359 12.28057129 34.82386719 12.48950195 35.50585938 C13.74899015 39.74078642 14.36333968 43.54337778 15 48 C5.43 48 -4.14 48 -14 48 C-12.78288875 42.52299937 -11.60843038 37.42604644 -9.94140625 32.12890625 C-9.55533203 30.89462891 -9.16925781 29.66035156 -8.77148438 28.38867188 C-8.36863741 27.11323455 -7.96564188 25.83784414 -7.5625 24.5625 C-6.77172027 22.04309902 -5.98134783 19.52357016 -5.19140625 17.00390625 C-4.81773926 15.8142627 -4.44407227 14.62461914 -4.05908203 13.39892578 C-2.67065772 8.94303751 -1.32439462 4.47529311 0 0 Z " fill="#F9FDF8" transform="translate(195,404)"/>
<path d="M0 0 C33.33 0 66.66 0 101 0 C101 0.66 101 1.32 101 2 C68.33 2 35.66 2 2 2 C2 44.9 2 87.8 2 132 C14.54 132 27.08 132 40 132 C40 114.51 40 97.02 40 79 C40.66 79 41.32 79 42 79 C42 97.15 42 115.3 42 134 C28.14 134 14.28 134 0 134 C0 89.78 0 45.56 0 0 Z " fill="#359E4E" transform="translate(739,369)"/>
<path d="M0 0 C0.66 0 1.32 0 2 0 C2 44.55 2 89.1 2 135 C15.53 135 29.06 135 43 135 C43 90.78 43 46.56 43 1 C43.66 1 44.32 1 45 1 C45.02332838 18.58454118 45.04097887 36.16907754 45.05181217 53.75363064 C45.05697526 61.91787164 45.0640182 70.08210305 45.07543945 78.24633789 C45.0853859 85.35971284 45.09185333 92.47308085 45.09408849 99.58646256 C45.09539567 103.35525724 45.09848194 107.12403203 45.10573006 110.89282036 C45.11374316 115.09318816 45.11399116 119.29352108 45.11352539 123.49389648 C45.11712067 124.75265091 45.12071594 126.01140533 45.12442017 127.30830383 C45.1230455 128.44558929 45.12167084 129.58287476 45.12025452 130.75462341 C45.12117631 131.74923804 45.1220981 132.74385267 45.12304783 133.76860714 C45 136 45 136 44 137 C40.92087441 137.10119282 37.86464501 137.13968327 34.78515625 137.1328125 C33.39604286 137.13424759 33.39604286 137.13424759 31.97886658 137.13571167 C30.01593966 137.13639362 28.0530105 137.13453832 26.09008789 137.13037109 C23.07888737 137.12502907 20.06783643 137.13031247 17.05664062 137.13671875 C15.1536455 137.13605785 13.25065047 137.13477645 11.34765625 137.1328125 C9.98979759 137.13584885 9.98979759 137.13584885 8.60450745 137.13894653 C7.76701462 137.13579437 6.92952179 137.13264221 6.06665039 137.12939453 C5.32798233 137.12859894 4.58931427 137.12780334 3.82826233 137.12698364 C2 137 2 137 0 136 C0 91.12 0 46.24 0 0 Z " fill="#DBF7DF" transform="translate(864,368)"/>
<path d="M0 0 C13.53 0 27.06 0 41 0 C41 44.22 41 88.44 41 134 C27.47 134 13.94 134 0 134 C0 89.78 0 45.56 0 0 Z M1 2 C1 44.9 1 87.8 1 132 C13.54 132 26.08 132 39 132 C39 89.1 39 46.2 39 2 C26.46 2 13.92 2 1 2 Z " fill="#33A05D" transform="translate(866,369)"/>
<path d="M0 0 C12.87 0 25.74 0 39 0 C39 44.22 39 88.44 39 134 C26.13 134 13.26 134 0 134 C-0.66 132.68 -1.32 131.36 -2 130 C-1.34 130 -0.68 130 0 130 C0 130.66 0 131.32 0 132 C12.21 132 24.42 132 37 132 C37 89.1 37 46.2 37 2 C26.11 2 15.22 2 4 2 C3.01 1.67 2.02 1.34 1 1 C1 25.09 1 49.18 1 74 C0.67 74 0.34 74 0 74 C0 49.58 0 25.16 0 0 Z " fill="#39A563" transform="translate(1026,369)"/>
<path d="M0 0 C12.87 0 25.74 0 39 0 C39.495 1.485 39.495 1.485 40 3 C27.46 2.67 14.92 2.34 2 2 C2 44.9 2 87.8 2 132 C13.88 132 25.76 132 38 132 C38 109.23 38 86.46 38 63 C38.33 63 38.66 63 39 63 C39 86.43 39 109.86 39 134 C26.13 134 13.26 134 0 134 C0 89.78 0 45.56 0 0 Z " fill="#49A256" transform="translate(937,369)"/>
<path d="M0 0 C0.33 0 0.66 0 1 0 C1.33 43.56 1.66 87.12 2 132 C14.54 132 27.08 132 40 132 C40 114.51 40 97.02 40 79 C40.66 79 41.32 79 42 79 C42 97.15 42 115.3 42 134 C28.14 134 14.28 134 0 134 C0 89.78 0 45.56 0 0 Z " fill="#57AA67" transform="translate(739,369)"/>
<path d="M0 0 C20.4556585 12.54731537 40.40257406 26.60649122 56 45 C55.505 45.99 55.505 45.99 55 47 C54.27296875 46.443125 53.5459375 45.88625 52.796875 45.3125 C47.64271073 41.40062147 42.48376616 37.60188471 37.0625 34.0625 C26.44118872 27.01368669 17.21898894 19.48538277 8.1875 10.5 C7.37974121 9.69771973 6.57198242 8.89543945 5.73974609 8.06884766 C0 2.25715316 0 2.25715316 0 0 Z " fill="#EDF9E8" transform="translate(630,269)"/>
<path d="M0 0 C17.3559375 -0.0928125 17.3559375 -0.0928125 35.0625 -0.1875 C40.49601929 -0.22846802 40.49601929 -0.22846802 46.03930664 -0.27026367 C50.54187012 -0.28381348 50.54187012 -0.28381348 52.6650238 -0.28633118 C54.11439293 -0.29086877 55.56375243 -0.3012716 57.01304626 -0.31672668 C67.41585043 -0.42189101 76.86368372 0.55326709 87 3 C87 3.33 87 3.66 87 4 C85.52093108 4.02689216 84.04172517 4.04634621 82.5625 4.0625 C81.32693359 4.07990234 81.32693359 4.07990234 80.06640625 4.09765625 C78 4 78 4 77 3 C74.65842993 2.87515624 72.34496275 2.81402052 70.00170898 2.79467773 C68.88640729 2.77962865 68.88640729 2.77962865 67.74857426 2.76427555 C65.33111292 2.73278178 62.91363524 2.70807484 60.49609375 2.68359375 C59.00784761 2.66520032 57.51960687 2.6463642 56.03137207 2.6270752 C50.5001454 2.55850803 44.96881494 2.4985319 39.4375 2.4375 C27.083125 2.293125 14.72875 2.14875 2 2 C1.67 45.56 1.34 89.12 1 134 C0.67 134 0.34 134 0 134 C0 89.78 0 45.56 0 0 Z " fill="#61AC61" transform="translate(1093,369)"/>
<path d="M0 0 C1 3 1 3 0.07421875 5.2265625 C-0.38339844 6.01804688 -0.84101562 6.80953125 -1.3125 7.625 C-1.98732422 8.81996094 -1.98732422 8.81996094 -2.67578125 10.0390625 C-4 12 -4 12 -6 13 C-7.08841816 15.07001545 -8.09794527 17.18194791 -9.0625 19.3125 C-9.58972656 20.46363281 -10.11695313 21.61476562 -10.66015625 22.80078125 C-11.68173474 25.24006051 -12.48444457 27.42222285 -13 30 C-13.66 30 -14.32 30 -15 30 C-14.91621094 30.94101562 -14.83242188 31.88203125 -14.74609375 32.8515625 C-14.64425781 34.09679687 -14.54242187 35.34203125 -14.4375 36.625 C-14.33308594 37.85476563 -14.22867188 39.08453125 -14.12109375 40.3515625 C-14.00746548 43.77507218 -14.42304329 46.64274798 -15 50 C-14.89687745 51.85878389 -14.7312317 53.71527405 -14.5 55.5625 C-14.02942241 59.3324682 -14.09032945 62.30111901 -15 66 C-14.34 66 -13.68 66 -13 66 C-12.88785156 65.29488281 -12.77570312 64.58976562 -12.66015625 63.86328125 C-11.93685092 60.72610488 -10.80542309 58.09872094 -9.4375 55.1875 C-8.75494141 53.72376953 -8.75494141 53.72376953 -8.05859375 52.23046875 C-7.70925781 51.49441406 -7.35992188 50.75835937 -7 50 C-6.34 50 -5.68 50 -5 50 C-4.896875 49.360625 -4.79375 48.72125 -4.6875 48.0625 C-4.460625 47.381875 -4.23375 46.70125 -4 46 C-2.515 45.505 -2.515 45.505 -1 45 C-0.67 43.35 -0.34 41.7 0 40 C1.485 40.495 1.485 40.495 3 41 C2.11248047 42.34191406 2.11248047 42.34191406 1.20703125 43.7109375 C-5.14966982 53.40201478 -10.67642951 62.8133481 -14 74 C-14.66 74 -15.32 74 -16 74 C-19.97888021 47.28466147 -18.04102122 24.59609473 -2 2 C-1.34 1.34 -0.68 0.68 0 0 Z " fill="#749D27" transform="translate(716,228)"/>
<path d="M0 0 C1.31355469 -0.02578125 2.62710938 -0.0515625 3.98046875 -0.078125 C8.03725735 0.26924528 10.39311433 1.0818562 13.8125 3.25 C15.8125 6.25 15.8125 6.25 15.625 9.5 C15.87772817 14.55456342 17.65469635 16.38169053 20.8125 20.25 C20.1525 20.58 19.4925 20.91 18.8125 21.25 C18.18601562 20.36570312 17.55953125 19.48140625 16.9140625 18.5703125 C13.43893322 14.39966756 9.0070682 12.43985321 4.1875 10.125 C2.48255342 9.29812651 0.78182651 8.46248218 -0.9140625 7.6171875 C-1.66252441 7.25737793 -2.41098633 6.89756836 -3.18212891 6.52685547 C-5.47118322 5.06937385 -6.69348115 3.49428257 -8.1875 1.25 C-6.23283483 -0.70466517 -2.65864994 0.02016038 0 0 Z " fill="#3B8314" transform="translate(673.1875,332.75)"/>
<path d="M0 0 C1.72874611 0.02997826 1.72874611 0.02997826 3.49241638 0.06056213 C5.4443264 0.09070656 5.4443264 0.09070656 7.43566895 0.12145996 C8.8666148 0.14866051 10.29755857 0.17597129 11.72850037 0.2033844 C13.18437991 0.22767544 14.64026697 0.25151949 16.09616089 0.27493286 C19.93495731 0.33787506 23.77362118 0.40691273 27.61228943 0.47718811 C31.52661585 0.54778029 35.44103653 0.61265172 39.35545349 0.67799377 C47.04110458 0.80713665 54.72662468 0.94271426 62.41209412 1.08229065 C62.41209412 1.41229065 62.41209412 1.74229065 62.41209412 2.08229065 C41.29209412 2.08229065 20.17209412 2.08229065 -1.58790588 2.08229065 C-1.58790588 11.32229065 -1.58790588 20.56229065 -1.58790588 30.08229065 C7.65209412 30.08229065 16.89209412 30.08229065 26.41209412 30.08229065 C26.41209412 34.37229065 26.41209412 38.66229065 26.41209412 43.08229065 C16.78709412 48.08229065 16.78709412 48.08229065 13.41209412 48.08229065 C13.41209412 47.42229065 13.41209412 46.76229065 13.41209412 46.08229065 C16.31809673 44.82564087 18.20813996 44.08229065 21.41209412 44.08229065 C21.41209412 43.09229065 21.41209412 42.10229065 21.41209412 41.08229065 C22.89709412 40.58729065 22.89709412 40.58729065 24.41209412 40.08229065 C24.74209412 37.11229065 25.07209412 34.14229065 25.41209412 31.08229065 C15.84209412 31.08229065 6.27209412 31.08229065 -3.58790588 31.08229065 C-3.61081908 26.82807351 -3.63074477 22.57406908 -3.64283752 18.31983948 C-3.64787689 16.87158992 -3.65470841 15.42334548 -3.66334534 13.97511292 C-3.67542835 11.89754477 -3.681138 9.82004368 -3.68556213 7.7424469 C-3.69079895 6.49084778 -3.69603577 5.23924866 -3.70143127 3.94972229 C-3.54952518 0.11286838 -3.54952518 0.11286838 0 0 Z " fill="#EAFEE7" transform="translate(350.58790588378906,424.91770935058594)"/>
<path d="M0 0 C1.52519276 0.08937803 3.04681929 0.24537146 4.5625 0.4375 C5.80193359 0.59025391 5.80193359 0.59025391 7.06640625 0.74609375 C7.70449219 0.82988281 8.34257812 0.91367187 9 1 C9 1.33 9 1.66 9 2 C6.69 2 4.38 2 2 2 C2 19.82 2 37.64 2 56 C1.01 55.34 0.02 54.68 -1 54 C-1.36749268 51.75413513 -1.36749268 51.75413513 -1.35644531 48.92358398 C-1.35944641 47.86586288 -1.36244751 46.80814178 -1.36553955 45.71836853 C-1.35319275 44.57251785 -1.34084595 43.42666718 -1.328125 42.24609375 C-1.32625183 41.07490494 -1.32437866 39.90371613 -1.32244873 38.69703674 C-1.31571718 36.21799885 -1.30178103 33.73897178 -1.28125 31.26000977 C-1.25010164 27.44993304 -1.24028189 23.64026952 -1.234375 19.83007812 C-1.22520535 17.42707825 -1.2148297 15.02408261 -1.203125 12.62109375 C-1.19887512 11.47321884 -1.19462524 10.32534393 -1.19024658 9.14268494 C-1.18063904 8.088116 -1.17103149 7.03354706 -1.16113281 5.94702148 C-1.15430481 5.0137352 -1.14747681 4.08044891 -1.14044189 3.11888123 C-1 1 -1 1 0 0 Z " fill="#2AAE71" transform="translate(478,447)"/>
<path d="M0 0 C29.51274277 -0.54429239 29.51274277 -0.54429239 42 4 C42 4.33 42 4.66 42 5 C34.25 5.125 34.25 5.125 32 4 C28.21995412 3.60609309 24.42083199 3.48524721 20.625 3.3125 C19.04332031 3.22258789 19.04332031 3.22258789 17.4296875 3.13085938 C16.41390625 3.08380859 15.398125 3.03675781 14.3515625 2.98828125 C13.42166504 2.94227783 12.49176758 2.89627441 11.53369141 2.84887695 C8.81488424 3.0110413 7.28002003 3.53906958 5 5 C3.88394923 6.70291681 3.88394923 6.70291681 4 9 C4.97940398 11.34205301 5.98034573 13.67518826 7 16 C7.1875 18.9375 7.1875 18.9375 7 21 C7.66 21.33 8.32 21.66 9 22 C9.70491267 24.32206525 10.37212429 26.65593068 11 29 C11.33 29.33 11.66 29.66 12 30 C12.04063832 31.66617115 12.042721 33.33388095 12 35 C9.19000448 31.65476724 7.58016096 28.02813199 6 24 C5.73944824 23.34153076 5.47889648 22.68306152 5.21044922 22.00463867 C2.47084087 14.90204556 0 7.6655836 0 0 Z " fill="#7DA735" transform="translate(612,252)"/>
<path d="M0 0 C1.30660357 4.29727397 0.6596762 7.60215865 0 12 C0.66 12.33 1.32 12.66 2 13 C1.67644531 14.14210938 1.35289062 15.28421875 1.01953125 16.4609375 C-0.08249944 20.89439429 -0.34390299 25.0705695 -0.3125 29.625 C-0.31193604 30.40045166 -0.31137207 31.17590332 -0.31079102 31.97485352 C-0.21086574 38.34329406 0.81812315 44.10886799 2.44140625 50.27734375 C3 53 3 53 2 56 C-6.70083855 41.94864579 -6.38853967 26.85182409 -3.02734375 10.95703125 C-2.15285723 7.26033823 -1.13142538 3.62582366 0 0 Z " fill="#6D9224" transform="translate(708,311)"/>
<path d="M0 0 C0 3 0 3 -1.328125 4.33203125 C-1.96234375 4.82058594 -2.5965625 5.30914062 -3.25 5.8125 C-7.96630734 9.73855264 -11.7822686 14.24051031 -15.69824219 18.93676758 C-18.65328864 22.47251502 -21.68974667 25.79262474 -25 29 C-25.66 27.68 -26.32 26.36 -27 25 C-26.34 25 -25.68 25 -25 25 C-25.99 23.68 -26.98 22.36 -28 21 C-19.5974676 12.91078237 -9.67920318 6.45280212 0 0 Z " fill="#F3F9DE" transform="translate(772,221)"/>
<path d="M0 0 C0.83272934 0.00222061 1.66545868 0.00444122 2.52342224 0.00672913 C3.46432205 0.00680466 4.40522186 0.00688019 5.37463379 0.00695801 C6.39754013 0.01211929 7.42044647 0.01728058 8.47434998 0.02259827 C9.51614914 0.02401321 10.5579483 0.02542816 11.63131714 0.02688599 C14.97355467 0.03250372 18.31572629 0.04505922 21.65794373 0.05775452 C23.91770839 0.06276723 26.17747409 0.06733053 28.4372406 0.07142639 C33.98999763 0.08247891 39.54271597 0.09923428 45.09544373 0.12025452 C46.82615402 4.08807564 48.43253701 7.80572091 49.28294373 12.05775452 C49.44149841 12.82990295 49.6000531 13.60205139 49.76341248 14.39759827 C49.87298279 14.96607483 49.9825531 15.53455139 50.09544373 16.12025452 C49.43544373 16.12025452 48.77544373 16.12025452 48.09544373 16.12025452 C47.90208435 15.4331842 47.70872498 14.74611389 47.50950623 14.03822327 C47.11892029 12.68664124 47.11892029 12.68664124 46.72044373 11.30775452 C46.46520935 10.4144342 46.20997498 9.52111389 45.94700623 8.60072327 C45.14277711 5.91557555 45.14277711 5.91557555 43.09544373 3.12025452 C41.12554132 2.64598826 41.12554132 2.64598826 38.82933044 2.68788147 C37.50818741 2.65819023 37.50818741 2.65819023 36.16035461 2.62789917 C35.2082309 2.62150925 34.25610718 2.61511932 33.27513123 2.60853577 C31.8144371 2.58160896 31.8144371 2.58160896 30.32423401 2.55413818 C27.20634831 2.4998482 24.08861727 2.46607961 20.97044373 2.43275452 C18.85974503 2.39959795 16.74906679 2.36510986 14.63841248 2.32923889 C9.4575616 2.24411144 4.27669116 2.17584116 -0.90455627 2.12025452 C-1.02830627 2.90400452 -1.15205627 3.68775452 -1.27955627 4.49525452 C-1.90455627 7.12025452 -1.90455627 7.12025452 -3.90455627 9.12025452 C-2.91162145 0.18384105 -2.91162145 0.18384105 0 0 Z " fill="#E6FCEA" transform="translate(173.90455627441406,480.87974548339844)"/>
<path d="M0 0 C0.33 0 0.66 0 1 0 C1 18.81 1 37.62 1 57 C-1.31 58.32 -3.62 59.64 -6 61 C-6.33 60.34 -6.66 59.68 -7 59 C-6.67 58.34 -6.34 57.68 -6 57 C-4.35 57 -2.7 57 -1 57 C-1.00222061 56.31539703 -1.00444122 55.63079407 -1.00672913 54.92544556 C-1.02879753 47.82074504 -1.04391314 40.7160542 -1.05493164 33.61132812 C-1.05997042 30.95735275 -1.06680151 28.30338016 -1.07543945 25.64941406 C-1.08752489 21.84178989 -1.09323275 18.03420231 -1.09765625 14.2265625 C-1.10281754 13.03382721 -1.10797882 11.84109192 -1.11329651 10.61221313 C-1.11337204 9.51122284 -1.11344757 8.41023254 -1.11352539 7.27587891 C-1.115746 6.30325104 -1.11796661 5.33062317 -1.12025452 4.32852173 C-1 2 -1 2 0 0 Z " fill="#2EA46B" transform="translate(412,427)"/>
<path d="M0 0 C15.18 0 30.36 0 46 0 C46.66 1.98 47.32 3.96 48 6 C47.34 6 46.68 6 46 6 C45.505 5.01 45.505 5.01 45 4 C39.94667709 2.98844489 34.90375753 2.814431 29.765625 2.76171875 C29.00578308 2.753647 28.24594116 2.74557526 27.46307373 2.73725891 C25.86977354 2.72352145 24.2764452 2.71275381 22.68310547 2.70483398 C21.05378598 2.69322635 19.42450702 2.67263883 17.79541016 2.64331055 C15.43105475 2.60082715 13.06781353 2.58450343 10.703125 2.57421875 C9.97498596 2.55671066 9.24684692 2.53920258 8.49664307 2.52116394 C6.20256854 2.4862145 6.20256854 2.4862145 3 3 C1.11645326 4.9105888 1.11645326 4.9105888 0 7 C-0.66 7 -1.32 7 -2 7 C-1.34 4.69 -0.68 2.38 0 0 Z " fill="#39A058" transform="translate(173,369)"/>
<path d="M0 0 C-3.29702191 1.20622753 -6.25745578 2.03432744 -9.75 2.5 C-13.07840049 2.68415804 -13.07840049 2.68415804 -15 5 C-16.91796875 5.34375 -16.91796875 5.34375 -19.1875 5.5 C-23.33384602 5.87514559 -26.99164618 6.8450506 -31 8 C-34.07267675 8.48643959 -37.14636273 8.9320608 -40.23046875 9.33984375 C-43.19714626 10.04699255 -44.68205622 11.07605549 -47 13 C-48.32860925 13.35169068 -49.66158328 13.68770276 -51 14 C-51.66 14.66 -52.32 15.32 -53 16 C-54.32 15.34 -55.64 14.68 -57 14 C-45.54566401 7.52940154 -33.40564531 4.0068373 -20.40234375 2.47265625 C-15.75494428 1.82703589 -11.27588646 0.6810624 -6.7421875 -0.51171875 C-4.04189759 -0.9925396 -2.55145978 -0.90949165 0 0 Z " fill="#99BB2D" transform="translate(792,198)"/>
<path d="M0 0 C1 3 1 3 0.07421875 5.2265625 C-0.38339844 6.01804688 -0.84101562 6.80953125 -1.3125 7.625 C-1.98732422 8.81996094 -1.98732422 8.81996094 -2.67578125 10.0390625 C-4 12 -4 12 -6 13 C-7.08841816 15.07001545 -8.09794527 17.18194791 -9.0625 19.3125 C-9.58972656 20.46363281 -10.11695313 21.61476562 -10.66015625 22.80078125 C-11.68173474 25.24006051 -12.48444457 27.42222285 -13 30 C-13.66 30 -14.32 30 -15 30 C-14.98839844 30.83144531 -14.97679687 31.66289062 -14.96484375 32.51953125 C-14.95582031 33.60621094 -14.94679688 34.69289063 -14.9375 35.8125 C-14.92589844 36.89144531 -14.91429687 37.97039062 -14.90234375 39.08203125 C-15 42 -15 42 -16 45 C-16.22451458 47.22574335 -16.40782878 49.45581519 -16.5625 51.6875 C-16.64628906 52.86699219 -16.73007812 54.04648437 -16.81640625 55.26171875 C-16.87699219 56.16535156 -16.93757812 57.06898438 -17 58 C-17.33 58 -17.66 58 -18 58 C-18.49641373 36.51631693 -14.55751184 19.68906875 -2 2 C-1.34 1.34 -0.68 0.68 0 0 Z " fill="#8CB139" transform="translate(716,228)"/>
<path d="M0 0 C0.33 0 0.66 0 1 0 C1.25 7.5 1.25 7.5 -1 12 C11.54 12 24.08 12 37 12 C37.33 10.35 37.66 8.7 38 7 C39 10 39 10 38 14 C24.14 14 10.28 14 -4 14 C-1.75 3.875 -1.75 3.875 0 0 Z " fill="#3EA057" transform="translate(128,489)"/>
<path d="M0 0 C0.02497996 4.37418249 0.04299062 8.74832563 0.05493164 13.12255859 C0.05991708 14.60628992 0.06670785 16.09001646 0.07543945 17.57373047 C0.12246397 25.77812616 0.0216355 33.84300472 -1 42 C-1.33 42 -1.66 42 -2 42 C-2.19448477 39.87562788 -2.38038289 37.75046809 -2.5625 35.625 C-2.71912109 33.84996094 -2.71912109 33.84996094 -2.87890625 32.0390625 C-3 29 -3 29 -2 27 C-1.45633837 19.12322796 -2.3058122 11.6843518 -4 4 C-7.93075644 4.57452746 -7.93075644 4.57452746 -11 7 C-13.31 6.34 -15.62 5.68 -18 5 C-15.23944978 3.15963319 -13.25401883 2.31655886 -10.125 1.375 C-8.86042969 0.98441406 -8.86042969 0.98441406 -7.5703125 0.5859375 C-4.95191084 -0.01096257 -2.67439984 -0.041866 0 0 Z " fill="#9EC225" transform="translate(812,192)"/>
<path d="M0 0 C3.05221988 2.77750995 3.41307903 4.35081039 3.625 8.5 C3.8022645 11.64011393 4.00005143 14.00015429 5 17 C5.5847352 27.48443807 4.5241776 37.64375756 3 48 C1.515 48.495 1.515 48.495 0 49 C0.0707373 48.44634766 0.14147461 47.89269531 0.21435547 47.32226562 C1.08997626 39.70790418 1.14861145 32.1579797 1.125 24.5 C1.12886719 23.24574219 1.13273438 21.99148438 1.13671875 20.69921875 C1.12942785 13.73640539 0.88277891 6.90940392 0 0 Z " fill="#D3F8F3" transform="translate(714,411)"/>
<path d="M0 0 C6.14769779 9.22154668 5.2889379 22.81029831 5.3125 33.4375 C5.31781738 34.63366943 5.32313477 35.82983887 5.32861328 37.06225586 C5.2759198 43.68175847 4.71726924 49.60300104 3 56 C2.67 56 2.34 56 2 56 C2 40.49 2 24.98 2 9 C1.34 9 0.68 9 0 9 C0 6.03 0 3.06 0 0 Z " fill="#2FAA75" transform="translate(1211,405)"/>
<path d="M0 0 C0.33 0 0.66 0 1 0 C1 6.6 1 13.2 1 20 C17.83 20 34.66 20 52 20 C53.39850246 22.79700492 53.0101384 24.98115359 52.87890625 28.1015625 C52.83056641 29.31328125 52.78222656 30.525 52.73242188 31.7734375 C52.64831055 33.67996094 52.64831055 33.67996094 52.5625 35.625 C52.51029297 36.90375 52.45808594 38.1825 52.40429688 39.5 C52.2743123 42.666897 52.13933598 45.83350287 52 49 C51.67 49 51.34 49 51 49 C50.67 40.09 50.34 31.18 50 22 C25.25 21.505 25.25 21.505 0 21 C0 14.07 0 7.14 0 0 Z " fill="#ECFFFC" transform="translate(782,399)"/>
<path d="M0 0 C5.77325484 6.56051686 5.31161048 14.49419605 5.25 22.75 C5.25773438 23.7709375 5.26546875 24.791875 5.2734375 25.84375 C5.2503577 34.93719009 4.73376054 44.03867545 0 52 C-1.20009342 48.39971973 -0.65528481 47.43990689 0.4375 43.875 C2.1462187 36.94606729 2.30888643 30.24579912 2.3125 23.125 C2.32011353 21.50247314 2.32011353 21.50247314 2.32788086 19.84716797 C2.27878849 14.1374159 1.77371119 9.41299908 0 4 C0 2.68 0 1.36 0 0 Z " fill="#E7F9D1" transform="translate(670,411)"/>
<path d="M0 0 C0.66 0 1.32 0 2 0 C1.98952637 0.8564209 1.97905273 1.7128418 1.96826172 2.59521484 C1.93386366 5.8194883 1.90894885 9.04366718 1.89013672 12.26806641 C1.88017397 13.65481676 1.86659882 15.04154665 1.84912109 16.42822266 C1.75909425 23.76276233 1.78297985 30.80904663 3.56689453 37.97119141 C4 40 4 40 4 44 C3.34 44 2.68 44 2 44 C-1.37646805 29.42390801 -4.73600416 14.64372486 0 0 Z " fill="#EEF9D6" transform="translate(577,420)"/>
<path d="M0 0 C2.625 0.1875 2.625 0.1875 5.625 2.1875 C5.625 1.5275 5.625 0.8675 5.625 0.1875 C6.615 0.1875 7.605 0.1875 8.625 0.1875 C8.563125 0.950625 8.50125 1.71375 8.4375 2.5 C8.39234755 5.14693637 8.39234755 5.14693637 9.75 6.8125 C11.73524782 8.36457824 11.73524782 8.36457824 14.75 9.625 C17.625 11.1875 17.625 11.1875 18.3046875 13.28515625 C18.41039062 13.91292969 18.51609375 14.54070312 18.625 15.1875 C12.51255815 11.98978737 7.06100027 8.43746385 1.625 4.1875 C3.605 6.8275 5.585 9.4675 7.625 12.1875 C6.635 12.1875 5.645 12.1875 4.625 12.1875 C3.24631719 10.55814759 1.91225907 8.89000393 0.625 7.1875 C-0.035 6.8575 -0.695 6.5275 -1.375 6.1875 C-2.09659424 4.54386866 -2.76851421 2.87699614 -3.375 1.1875 C-2.375 0.1875 -2.375 0.1875 0 0 Z " fill="#5F9A18" transform="translate(629.375,265.8125)"/>
<path d="M0 0 C1.64861525 2.47292287 2.66488584 4.43579111 3.7265625 7.16015625 C4.0359375 7.95357422 4.3453125 8.74699219 4.6640625 9.56445312 C4.98117187 10.38880859 5.29828125 11.21316406 5.625 12.0625 C6.11226563 13.30483398 6.11226563 13.30483398 6.609375 14.57226562 C9 20.74469866 9 20.74469866 9 23 C-5.19 23 -19.38 23 -34 23 C-34 22.67 -34 22.34 -34 22 C-20.47 22 -6.94 22 7 22 C6.34 20.35 5.68 18.7 5 17 C4.01 16.67 3.02 16.34 2 16 C0.80911014 10.61972975 -0.2919519 5.54708616 0 0 Z " fill="#459A64" transform="translate(260,480)"/>
<path d="M0 0 C1.61001333 0.0879643 3.21942962 0.18742262 4.828125 0.296875 C5.62734375 0.33683594 6.4265625 0.37679688 7.25 0.41796875 C11.83640645 0.69707572 15.75817112 1.34676412 20.078125 3.046875 C20.078125 3.706875 20.078125 4.366875 20.078125 5.046875 C20.738125 5.046875 21.398125 5.046875 22.078125 5.046875 C21.748125 5.706875 21.418125 6.366875 21.078125 7.046875 C20.50707031 6.758125 19.93601562 6.469375 19.34765625 6.171875 C11.48293905 2.57085981 3.64382501 1.3166849 -4.76171875 3.9296875 C-11.25240711 6.87733846 -16.15657571 10.83834779 -18.94921875 17.49609375 C-19.68864438 19.66666575 -20.34813398 21.82740317 -20.921875 24.046875 C-21.251875 24.046875 -21.581875 24.046875 -21.921875 24.046875 C-22.74233057 16.52603231 -20.35387673 12.96439532 -15.921875 7.046875 C-15.591875 6.386875 -15.261875 5.726875 -14.921875 5.046875 C-12.92578125 4.265625 -12.92578125 4.265625 -10.484375 3.546875 C-6.24516122 2.29484396 -4.4503891 0.0531919 0 0 Z " fill="#36A561" transform="translate(641.921875,395.953125)"/>
<path d="M0 0 C0.33 0 0.66 0 1 0 C1 24.09 1 48.18 1 73 C-2.48048937 69.51951063 -4.03043666 67.33303934 -6 63 C-5.34 63 -4.68 63 -4 63 C-4 63.66 -4 64.32 -4 65 C-3.34 65 -2.68 65 -2 65 C-1.67 65.66 -1.34 66.32 -1 67 C-0.67 44.89 -0.34 22.78 0 0 Z " fill="#F1FEE2" transform="translate(1025,369)"/>
<path d="M0 0 C-1.96969697 6.81818182 -1.96969697 6.81818182 -5 9 C-5.99 9 -6.98 9 -8 9 C-8.09152344 9.59296875 -8.18304687 10.1859375 -8.27734375 10.796875 C-9.17232113 13.52534657 -10.33906301 14.47125041 -12.5625 16.25 C-13.20316406 16.77078125 -13.84382812 17.2915625 -14.50390625 17.828125 C-14.99761719 18.21484375 -15.49132812 18.6015625 -16 19 C-16.66 18.67 -17.32 18.34 -18 18 C-8.58997722 7.44191344 -8.58997722 7.44191344 -4 3 C-7.3 5.31 -10.6 7.62 -14 10 C-14.33 9.01 -14.66 8.02 -15 7 C-10.25 4 -10.25 4 -8 4 C-7.67 3.01 -7.34 2.02 -7 1 C-4 0 -4 0 0 0 Z " fill="#94BF1B" transform="translate(776,219)"/>
<path d="M0 0 C2.28939629 7.91676732 -0.7025894 13.58082614 -4 21 C3.92 21 11.84 21 20 21 C20 17.7 20 14.4 20 11 C22 15 22 15 23 22 C13.43 22 3.86 22 -6 22 C-4.76931374 16.46191183 -3.5672875 11.29641043 -1.875 5.9375 C-1.34519531 4.24947266 -1.34519531 4.24947266 -0.8046875 2.52734375 C-0.53914062 1.69332031 -0.27359375 0.85929687 0 0 Z " fill="#E9FFEE" transform="translate(187,430)"/>
<path d="M0 0 C0.66 0 1.32 0 2 0 C2.20496094 0.71027344 2.40992188 1.42054688 2.62109375 2.15234375 C2.89050781 3.07144531 3.15992188 3.99054688 3.4375 4.9375 C3.70433594 5.85402344 3.97117187 6.77054687 4.24609375 7.71484375 C4.79026051 9.9402493 4.79026051 9.9402493 6 11 C6.25538961 15.38969673 6.1852374 19.79126557 6.1875 24.1875 C6.19974609 25.42048828 6.21199219 26.65347656 6.22460938 27.92382812 C6.22750977 29.71530273 6.22750977 29.71530273 6.23046875 31.54296875 C6.23457764 32.63633545 6.23868652 33.72970215 6.24291992 34.85620117 C5.98565073 38.18570401 5.1813278 40.88793136 4 44 C3.34 44 2.68 44 2 44 C2.23976563 42.13988281 2.23976563 42.13988281 2.484375 40.2421875 C3.11381062 34.53485812 3.22098415 28.86288471 3.25 23.125 C3.270625 22.11308594 3.29125 21.10117187 3.3125 20.05859375 C3.34900327 12.93132986 2.21361086 6.7693756 0 0 Z " fill="#47A349" transform="translate(671,411)"/>
<path d="M0 0 C0.33 0 0.66 0 1 0 C1 2.64 1 5.28 1 8 C0.34 8 -0.32 8 -1 8 C-1.72183613 13.2814772 -2.16580095 18.44551925 -2.31640625 23.78125 C-2.33718735 24.48020386 -2.35796844 25.17915771 -2.37937927 25.89929199 C-2.44398535 28.09944259 -2.50333909 30.29969696 -2.5625 32.5 C-2.60577017 34.00521842 -2.64938693 35.51042693 -2.69335938 37.015625 C-2.79957319 40.67697744 -2.90108196 44.33844234 -3 48 C-3.33 48 -3.66 48 -4 48 C-7.14919559 32.73656006 -6.16371475 14.39093401 0 0 Z " fill="#46A148" transform="translate(282,405)"/>
<path d="M0 0 C1.32 0 2.64 0 4 0 C4 0.66 4 1.32 4 2 C4.66 2 5.32 2 6 2 C7.85776765 5.13498292 8.20140476 7.37471432 8 11 C8.66 11 9.32 11 10 11 C10.76095218 15.059797 11.12821691 18.89886354 11.1328125 23.02734375 C11.13474609 24.71053711 11.13474609 24.71053711 11.13671875 26.42773438 C11.13285156 27.58595703 11.12898438 28.74417969 11.125 29.9375 C11.12886719 31.09185547 11.13273437 32.24621094 11.13671875 33.43554688 C11.12344758 45.0013693 11.12344758 45.0013693 10 50 C9.01 50.495 9.01 50.495 8 51 C8.15984375 49.71738281 8.3196875 48.43476563 8.484375 47.11328125 C10.21452747 31.42227079 10.03458298 15.99572518 2 2 C1.34 1.34 0.68 0.68 0 0 Z " fill="#47A243" transform="translate(1165,405)"/>
<path d="M0 0 C0.99 0 1.98 0 3 0 C3 9.24 3 18.48 3 28 C2.01 27.67 1.02 27.34 0 27 C0 18.09 0 9.18 0 0 Z " fill="#2AAF73" transform="translate(477,396)"/>
<path d="M0 0 C1.47906892 -0.02689216 2.95827483 -0.04634621 4.4375 -0.0625 C5.26121094 -0.07410156 6.08492188 -0.08570313 6.93359375 -0.09765625 C9 0 9 0 10 1 C12.80976518 1.16017166 15.59773596 1.25950534 18.41015625 1.31640625 C19.25219101 1.33718735 20.09422577 1.35796844 20.96177673 1.37937927 C23.66193179 1.44496812 26.36218717 1.50380276 29.0625 1.5625 C30.88868241 1.60567637 32.71485454 1.64929036 34.54101562 1.69335938 C39.02723992 1.80065894 43.5135655 1.90189966 48 2 C48 2.33 48 2.66 48 3 C32.03416415 5.35686148 15.66563689 4.87033382 0 1 C0 0.67 0 0.34 0 0 Z " fill="#42A460" transform="translate(320,501)"/>
<path d="M0 0 C0.33 0.66 0.66 1.32 1 2 C-0.70424258 6.30545493 -1.87436888 8.07470548 -6 10 C-6.75243555 11.92638012 -6.75243555 11.92638012 -7 14 C-8 17 -8 17 -9.75 18.5625 C-13.11207026 22.20474278 -14.86671204 26.56103717 -17 31 C-19.5785124 35.85950413 -19.5785124 35.85950413 -23 37 C-18.92830688 26.01876703 -12.01337969 16.27141878 -5 7 C-3.99484583 5.60787364 -2.99405305 4.21257472 -2 2.8125 C-1.34 1.884375 -0.68 0.95625 0 0 Z " fill="#80A934" transform="translate(737,262)"/>
<path d="M0 0 C12.54 0 25.08 0 38 0 C38.495 1.485 38.495 1.485 39 3 C19.695 2.505 19.695 2.505 0 2 C0 1.34 0 0.68 0 0 Z " fill="#369D56" transform="translate(938,369)"/>
<path d="M0 0 C0 3 0 3 -1.50390625 4.54296875 C-2.18324219 5.08566406 -2.86257813 5.62835938 -3.5625 6.1875 C-7.33321157 9.31638833 -10.40310684 12.67324775 -13.45703125 16.49609375 C-15 18 -15 18 -18 18 C-18 18.66 -18 19.32 -18 20 C-18.66 20 -19.32 20 -20 20 C-19.03709834 14.02700061 -17.08451018 11.6993628 -12.234375 8.16796875 C-11.49703125 7.65878906 -10.7596875 7.14960938 -10 6.625 C-9.26265625 6.09261719 -8.5253125 5.56023437 -7.765625 5.01171875 C-2.56696429 1.28348214 -2.56696429 1.28348214 0 0 Z " fill="#F8FEEE" transform="translate(772,221)"/>
<path d="M0 0 C0.80928235 2.30926736 1.20387037 3.50802022 0.24902344 5.81225586 C-0.12706055 6.46073486 -0.50314453 7.10921387 -0.890625 7.77734375 C-4.03465573 14.37791428 -3.67728373 21.40671158 -3.75 28.5625 C-3.77821313 29.9668328 -3.80814786 31.37113212 -3.83984375 32.77539062 C-3.91011715 36.18365068 -3.96302798 39.5912433 -4 43 C-4.33 43 -4.66 43 -5 43 C-7.28868643 29.00948133 -7.97718922 12.26744224 0 0 Z " fill="#C6F7EF" transform="translate(324,408)"/>
<path d="M0 0 C-20.90686351 15.63389351 -20.90686351 15.63389351 -32 15 C-29.94876752 12.94876752 -28.72994937 12.35852882 -26.0625 11.375 C-25.37285156 11.11460937 -24.68320312 10.85421875 -23.97265625 10.5859375 C-22 10 -22 10 -19 10 C-18.67 9.01 -18.34 8.02 -18 7 C-17.01 7.33 -16.02 7.66 -15 8 C-14.67 7.01 -14.34 6.02 -14 5 C-12.67203709 4.64587656 -11.33783393 4.31478446 -10 4 C-8.97895449 3.02149805 -7.9793879 2.02019573 -7 1 C-3.52173913 -1.17391304 -3.52173913 -1.17391304 0 0 Z " fill="#75A421" transform="translate(787,279)"/>
<path d="M0 0 C1.30660357 4.29727397 0.6596762 7.60215865 0 12 C0.66 12.33 1.32 12.66 2 13 C1.34 15.64 0.68 18.28 0 21 C-0.33 19.68 -0.66 18.36 -1 17 C-1.9731681 19.9195043 -2.1929546 22.05444951 -2.31640625 25.10546875 C-2.35830078 26.08837891 -2.40019531 27.07128906 -2.44335938 28.08398438 C-2.48267578 29.10814453 -2.52199219 30.13230469 -2.5625 31.1875 C-2.60568359 32.22326172 -2.64886719 33.25902344 -2.69335938 34.32617188 C-2.79944366 36.8839819 -2.90150146 39.44188845 -3 42 C-5.96816294 37.54775559 -5.12819715 33.53203195 -4.875 28.3125 C-4.82931885 27.28697021 -4.7836377 26.26144043 -4.73657227 25.20483398 C-4.23789787 16.44417141 -2.60745572 8.355986 0 0 Z " fill="#85A946" transform="translate(708,311)"/>
<path d="M0 0 C1.32 0.33 2.64 0.66 4 1 C-2.73768762 9.64631585 -12.13135345 18.12433727 -23 21 C-23.99 20.67 -24.98 20.34 -26 20 C-23.03 19.01 -20.06 18.02 -17 17 C-17 16.34 -17 15.68 -17 15 C-16.360625 14.896875 -15.72125 14.79375 -15.0625 14.6875 C-14.381875 14.460625 -13.70125 14.23375 -13 14 C-12.67 13.01 -12.34 12.02 -12 11 C-8.4375 9.8125 -8.4375 9.8125 -5 9 C-5 8.34 -5 7.68 -5 7 C-4.34 7 -3.68 7 -3 7 C-1.79371992 4.66785852 -0.8345262 2.50357861 0 0 Z " fill="#34A766" transform="translate(700,480)"/>
<path d="M0 0 C0.33 0 0.66 0 1 0 C0.88570603 1.77155654 0.75816963 3.54226229 0.625 5.3125 C0.55539063 6.29863281 0.48578125 7.28476562 0.4140625 8.30078125 C0 11 0 11 -2 14 C-3.87295532 14.36076355 -3.87295532 14.36076355 -6.17431641 14.34057617 C-7.46542831 14.34023628 -7.46542831 14.34023628 -8.78262329 14.33988953 C-9.71287323 14.32440567 -10.64312317 14.30892181 -11.6015625 14.29296875 C-12.55316254 14.28872391 -13.50476257 14.28447906 -14.48519897 14.28010559 C-17.53208414 14.26327896 -20.57831391 14.22561954 -23.625 14.1875 C-25.68749046 14.17245831 -27.74999127 14.15876901 -29.8125 14.14648438 C-34.8752535 14.11336239 -39.93751554 14.06155284 -45 14 C-45 13.67 -45 13.34 -45 13 C-31.14 13 -17.28 13 -3 13 C-2.67 10.69 -2.34 8.38 -2 6 C-1.37743972 3.98583438 -0.72433347 1.97984481 0 0 Z " fill="#DEFFEC" transform="translate(169,490)"/>
<path d="M0 0 C9.24 0 18.48 0 28 0 C28 4.29 28 8.58 28 13 C18.375 18 18.375 18 15 18 C15 17.34 15 16.68 15 16 C17.90600261 14.74335022 19.79604584 14 23 14 C23 13.01 23 12.02 23 11 C23.99 10.67 24.98 10.34 26 10 C26.33 7.03 26.66 4.06 27 1 C18.09 1 9.18 1 0 1 C0 0.67 0 0.34 0 0 Z " fill="#E0FCDF" transform="translate(349,455)"/>
<path d="M0 0 C0.33 0 0.66 0 1 0 C0.98428955 0.72477539 0.9685791 1.44955078 0.95239258 2.19628906 C0.88921857 5.54744349 0.85075114 8.89847197 0.8125 12.25 C0.78736328 13.38953125 0.76222656 14.5290625 0.73632812 15.703125 C0.66906655 23.59515037 1.77037841 30.44507182 4 38 C4.34013747 39.33161383 4.67627169 40.6643021 5 42 C2 41 2 41 0.875 39.3125 C-1.73672801 32.41007597 -1.39901431 24.65253231 -1.6875 17.375 C-1.74744141 16.1478125 -1.80738281 14.920625 -1.86914062 13.65625 C-1.91619141 12.47804688 -1.96324219 11.29984375 -2.01171875 10.0859375 C-2.05772217 9.0139209 -2.10372559 7.9419043 -2.15112305 6.83740234 C-1.99881683 3.97778553 -1.48777744 2.41141353 0 0 Z " fill="#30A774" transform="translate(619,420)"/>
<path d="M0 0 C3.3 0 6.6 0 10 0 C7.22755827 1.84829449 5.18674421 2.67361164 2.0625 3.6875 C-5.56241498 6.37804923 -12.29571415 10.5304761 -19 15 C-19.99 14.67 -20.98 14.34 -22 14 C-21.01 13.67 -20.02 13.34 -19 13 C-19 12.34 -19 11.68 -19 11 C-16.75 9.5 -16.75 9.5 -14 8 C-12.948125 7.4121875 -12.948125 7.4121875 -11.875 6.8125 C-10 6 -10 6 -7 6 C-7 5.34 -7 4.68 -7 4 C-6.030625 3.71125 -5.06125 3.4225 -4.0625 3.125 C-0.89335797 2.35785318 -0.89335797 2.35785318 0 0 Z " fill="#73A427" transform="translate(741,296)"/>
<path d="M0 0 C2.80868131 4.21302197 4.33684725 8.78003497 6.125 13.5 C6.49753906 14.46292969 6.87007812 15.42585938 7.25390625 16.41796875 C7.60582031 17.34222656 7.95773438 18.26648438 8.3203125 19.21875 C8.64273926 20.06373047 8.96516602 20.90871094 9.29736328 21.77929688 C10 24 10 24 10 27 C8 27 8 27 6.4375 25.5 C4.74616792 22.55855291 4.56293362 20.34258397 4.40625 17 C4.13056267 14.8742714 4.13056267 14.8742714 2.51171875 13.109375 C0.58896919 10.42646863 0.50704593 8.51837166 0.3125 5.25 C0.24675781 4.26515625 0.18101562 3.2803125 0.11328125 2.265625 C0.07589844 1.51796875 0.03851563 0.7703125 0 0 Z " fill="#36AD75" transform="translate(232,405)"/>
<path d="M0 0 C0.66 0 1.32 0 2 0 C2.99 7.92 3.98 15.84 5 24 C2.61318325 21.61318325 1.05776184 19.7414492 -0.6875 16.9375 C-1.12449219 16.24527344 -1.56148437 15.55304688 -2.01171875 14.83984375 C-3 13 -3 13 -3 11 C-1.68 11.33 -0.36 11.66 1 12 C0.67 8.04 0.34 4.08 0 0 Z " fill="#539131" transform="translate(699,326)"/>
<path d="M0 0 C0.33 0 0.66 0 1 0 C1.04898438 1.28132813 1.09796875 2.56265625 1.1484375 3.8828125 C1.53155775 13.01133818 2.06308673 21.94003516 3.59765625 30.95703125 C4.04407753 34.33336308 4.06402458 37.59816067 4 41 C-0.6999286 32.27367588 -0.25941199 22.53198441 -0.125 12.875 C-0.11597656 11.63234375 -0.10695313 10.3896875 -0.09765625 9.109375 C-0.07429729 6.07270996 -0.04154283 3.03646147 0 0 Z " fill="#51A852" transform="translate(578,423)"/>
<path d="M0 0 C11.22 0 22.44 0 34 0 C34.66 2.97 35.32 5.94 36 9 C34.9790625 7.824375 34.9790625 7.824375 33.9375 6.625 C27.62131397 0.98074865 19.6383837 1.60505485 11.5625 1.375 C9.8928418 1.31699219 9.8928418 1.31699219 8.18945312 1.2578125 C5.45979524 1.16409034 2.73013437 1.07837706 0 1 C0 0.67 0 0.34 0 0 Z " fill="#3CA252" transform="translate(481,395)"/>
<path d="M0 0 C-3.29702191 1.20622753 -6.25745578 2.03432744 -9.75 2.5 C-13.07840049 2.68415804 -13.07840049 2.68415804 -15 5 C-21.16069988 6.40740127 -27.72056573 6.1179852 -34 6 C-30.60249542 3.73499695 -28.64268859 3.53649697 -24.625 3.0625 C-18.52376528 2.27769387 -12.68808348 1.05260052 -6.7421875 -0.51171875 C-4.04189759 -0.9925396 -2.55145978 -0.90949165 0 0 Z " fill="#A7C641" transform="translate(792,198)"/>
<path d="M0 0 C0.33 0 0.66 0 1 0 C1.02465504 4.39656173 1.04283842 8.7930872 1.05493164 13.18969727 C1.05997121 14.68644918 1.06680287 16.18319616 1.07543945 17.67993164 C1.08752159 19.82699807 1.09323191 21.97399962 1.09765625 24.12109375 C1.10289307 25.4145874 1.10812988 26.70808105 1.11352539 28.04077148 C1 31 1 31 0 32 C-0.36760731 34.32817964 -0.70241581 36.6618385 -1 39 C-1.66 39 -2.32 39 -3 39 C-2.80083984 37.29070312 -2.80083984 37.29070312 -2.59765625 35.546875 C-1.26199966 23.70649394 -0.47667917 11.9044351 0 0 Z " fill="#E4F3B8" transform="translate(812,204)"/>
<path d="M0 0 C-1.44538398 3.39514675 -3.27599727 5.35388724 -6 7.8125 C-9.73876949 11.42257996 -11.15117963 13.90707778 -12 19 C-12.66 19 -13.32 19 -14 19 C-13.40952435 11.61905437 -10.81759446 7.46664132 -5.375 2.625 C-2.29230769 0 -2.29230769 0 0 0 Z " fill="#D8F9F3" transform="translate(635,401)"/>
<path d="M0 0 C0.66 0.33 1.32 0.66 2 1 C-2.11643175 8.58714872 -7.03798211 14.77300354 -13 21 C-13.33 20.01 -13.66 19.02 -14 18 C-13.34 18 -12.68 18 -12 18 C-11.34 16.68 -10.68 15.36 -10 14 C-9.34 14 -8.68 14 -8 14 C-8.268125 13.443125 -8.53625 12.88625 -8.8125 12.3125 C-9 10 -9 10 -6.75 7.3125 C-4 5 -4 5 -1 4 C-0.26676204 1.98491642 -0.26676204 1.98491642 0 0 Z " fill="#80AB24" transform="translate(801,257)"/>
<path d="M0 0 C1.09679189 3.64598213 0.74304613 6.58149544 0.26220703 10.34716797 C-0.2378662 15.40656805 -0.10229809 20.48365202 -0.0625 25.5625 C-0.05798828 26.66658203 -0.05347656 27.77066406 -0.04882812 28.90820312 C-0.0371514 31.605527 -0.02077525 34.30273347 0 37 C-0.33 37 -0.66 37 -1 37 C-2.37340976 31.16523475 -2.18603052 25.3624142 -2.18530273 19.39746094 C-2.18750094 17.37413858 -2.20572134 15.35135194 -2.22460938 13.328125 C-2.22654297 12.05195313 -2.22847656 10.77578125 -2.23046875 9.4609375 C-2.23457764 8.29353027 -2.23868652 7.12612305 -2.24291992 5.92333984 C-2 3 -2 3 0 0 Z " fill="#F0FAD7" transform="translate(699,257)"/>
<path d="M0 0 C25.25 -0.5 25.25 -0.5 32 4 C24.25 4.125 24.25 4.125 22 3 C20.33434251 2.84777027 18.66343504 2.75082785 16.9921875 2.68359375 C16.00605469 2.64169922 15.01992188 2.59980469 14.00390625 2.55664062 C12.45509766 2.49766602 12.45509766 2.49766602 10.875 2.4375 C9.83472656 2.39431641 8.79445313 2.35113281 7.72265625 2.30664062 C5.14857472 2.2003712 2.57439492 2.09833417 0 2 C0 1.34 0 0.68 0 0 Z " fill="#679925" transform="translate(622,253)"/>
<path d="M0 0 C0.94746094 0.433125 0.94746094 0.433125 1.9140625 0.875 C12.13873846 5.11809319 22.21343493 4.72585041 33 3 C30.81720614 5.32770964 29.06236614 6.86881424 25.82519531 7.26855469 C23.24210007 7.24066841 20.69953692 7.08608941 18.125 6.875 C17.25230469 6.82601563 16.37960937 6.77703125 15.48046875 6.7265625 C10.3863948 6.38951099 5.84778789 5.59831699 1 4 C0.67 2.68 0.34 1.36 0 0 Z " fill="#3BA459" transform="translate(331,471)"/>
<path d="M0 0 C2 2 2 2 2 6 C-1.37321776 6.67590188 -4.74882242 7.33905518 -8.125 8 C-9.07632812 8.19078125 -10.02765625 8.3815625 -11.0078125 8.578125 C-15.73638116 9.49756891 -20.15562735 10.2609763 -25 10 C-25 9.34 -25 8.68 -25 8 C-24.07767578 7.90912109 -24.07767578 7.90912109 -23.13671875 7.81640625 C-22.32847656 7.73261719 -21.52023437 7.64882813 -20.6875 7.5625 C-19.88699219 7.48128906 -19.08648437 7.40007812 -18.26171875 7.31640625 C-15.83912821 7.04734307 -15.83912821 7.04734307 -13 6 C-10.77425665 5.77548542 -8.54418481 5.59217122 -6.3125 5.4375 C-5.13300781 5.35371094 -3.95351563 5.26992188 -2.73828125 5.18359375 C-1.83464844 5.12300781 -0.93101562 5.06242187 0 5 C0 3.35 0 1.7 0 0 Z " fill="#3BA563" transform="translate(409,399)"/>
<path d="M0 0 C1.35931641 -0.01160156 1.35931641 -0.01160156 2.74609375 -0.0234375 C3.61621094 -0.02085937 4.48632812 -0.01828125 5.3828125 -0.015625 C6.56834717 -0.01224121 6.56834717 -0.01224121 7.77783203 -0.00878906 C9.875 0.25 9.875 0.25 12.875 2.25 C10.30594038 3.53452981 9.61435575 2.95494647 6.875 2.25 C-0.60190102 1.63943646 -6.72775807 1.80026776 -13.41796875 5.375 C-15.125 6.25 -15.125 6.25 -17.125 6.25 C-16.19641374 3.71749201 -15.54634994 2.49149516 -13.17578125 1.1328125 C-8.77374856 -0.14101514 -4.55833867 -0.03923964 0 0 Z " fill="#3AA155" transform="translate(347.125,394.75)"/>
<path d="M0 0 C0.33 0 0.66 0 1 0 C1.33 3.96 1.66 7.92 2 12 C2.66 11.34 3.32 10.68 4 10 C4.0272415 11.41655793 4.04650467 12.83327045 4.0625 14.25 C4.07410156 15.03890625 4.08570313 15.8278125 4.09765625 16.640625 C4.00347888 18.91595019 3.58417277 20.80935213 3 23 C2.96213099 24.66623639 2.95372155 26.33397597 3 28 C-0.83419924 22.24870114 -0.1326181 15.25608168 -0.0625 8.5625 C-0.05798828 7.73556641 -0.05347656 6.90863281 -0.04882812 6.05664062 C-0.03715811 4.03772854 -0.01922718 2.01885426 0 0 Z " fill="#E0F0C3" transform="translate(707,332)"/>
<path d="M0 0 C0.66 0 1.32 0 2 0 C1.814375 1.093125 1.62875 2.18625 1.4375 3.3125 C0.85747409 7.77790499 1.2769489 11.93604193 1.84375 16.38671875 C2.00720426 19.12049123 1.64939538 21.34989387 1 24 C1.66 24.33 2.32 24.66 3 25 C2.67 25.66 2.34 26.32 2 27 C1.01 26.67 0.02 26.34 -1 26 C-1.02899599 22.22918278 -1.04679729 18.45839417 -1.0625 14.6875 C-1.07087891 13.61564453 -1.07925781 12.54378906 -1.08789062 11.43945312 C-1.09111328 10.41142578 -1.09433594 9.38339844 -1.09765625 8.32421875 C-1.10289307 7.37635498 -1.10812988 6.42849121 -1.11352539 5.4519043 C-1 3 -1 3 0 0 Z " fill="#6F9E1A" transform="translate(700,270)"/>
<path d="M0 0 C0.33 0 0.66 0 1 0 C1.02497996 4.37418249 1.04299062 8.74832563 1.05493164 13.12255859 C1.05991708 14.60628992 1.06670785 16.09001646 1.07543945 17.57373047 C1.12246397 25.77812616 1.0216355 33.84300472 0 42 C-0.33 42 -0.66 42 -1 42 C-1.19448477 39.87562788 -1.38038289 37.75046809 -1.5625 35.625 C-1.71912109 33.84996094 -1.71912109 33.84996094 -1.87890625 32.0390625 C-2 29 -2 29 -1 27 C-0.84588894 24.9692523 -0.75017547 22.93393579 -0.68359375 20.8984375 C-0.64169922 19.68671875 -0.59980469 18.475 -0.55664062 17.2265625 C-0.51732422 15.95554688 -0.47800781 14.68453125 -0.4375 13.375 C-0.39431641 12.09625 -0.35113281 10.8175 -0.30664062 9.5 C-0.20030114 6.33344652 -0.09827167 3.16681247 0 0 Z " fill="#ABCD47" transform="translate(811,192)"/>
<path d="M0 0 C0.33 0.99 0.66 1.98 1 3 C0.03567924 4.68756133 -0.9731657 6.3497306 -2 8 C-4.09987821 12.86557147 -5.61657011 17.89195116 -7 23 C-5.68 23.33 -4.36 23.66 -3 24 C-4.65 24.66 -6.3 25.32 -8 26 C-8.6434893 16.18678823 -5.9387216 7.84759641 0 0 Z " fill="#6A9639" transform="translate(719,325)"/>
<path d="M0 0 C3.66786393 1.50349377 5.68910393 3.63728792 8.25 6.625 C8.95640625 7.44226563 9.6628125 8.25953125 10.390625 9.1015625 C10.92171875 9.72804688 11.4528125 10.35453125 12 11 C11.67 11.66 11.34 12.32 11 13 C6.71 9.7 2.42 6.4 -2 3 C-1.34 2.67 -0.68 2.34 0 2 C0 1.34 0 0.68 0 0 Z " fill="#CBEBC2" transform="translate(674,303)"/>
<path d="M0 0 C7.02935371 2.55612862 12.87579184 6.76635199 19 11 C15.28272326 12.13583456 13.52948291 11.66670026 10 10 C10 9.34 10 8.68 10 8 C7.69 7.34 5.38 6.68 3 6 C3 4.68 3 3.36 3 2 C2.01 2 1.02 2 0 2 C0 1.34 0 0.68 0 0 Z " fill="#2A830F" transform="translate(657,297)"/>
<path d="M0 0 C1.32 0.33 2.64 0.66 4 1 C2.46620188 2.44589269 0.92256145 3.88134804 -0.625 5.3125 C-1.48351563 6.11300781 -2.34203125 6.91351563 -3.2265625 7.73828125 C-6.04609227 10.03758792 -8.63747202 11.62013908 -12 13 C-12.66 12.67 -13.32 12.34 -14 12 C-10.375 9 -10.375 9 -7 9 C-6.67 7.68 -6.34 6.36 -6 5 C-5.01 5 -4.02 5 -3 5 C-3 4.01 -3 3.02 -3 2 C-2.34 2 -1.68 2 -1 2 C-0.67 1.34 -0.34 0.68 0 0 Z " fill="#30A765" transform="translate(1198,484)"/>
<path d="M0 0 C2.36038857 3.54058286 3.69776886 7.09806253 5.1875 11.0625 C5.47302734 11.79533203 5.75855469 12.52816406 6.05273438 13.28320312 C6.76356416 15.16664262 7.38849705 17.08200952 8 19 C7.67 19.66 7.34 20.32 7 21 C3.89531014 18.45979921 3.01514064 15.82629933 2 12 C2 10.68 2 9.36 2 8 C1.34 8 0.68 8 0 8 C0 5.36 0 2.72 0 0 Z " fill="#33AB70" transform="translate(221,376)"/>
<path d="M0 0 C3.78707443 5.68061165 6.73095344 12.05594232 6 19 C5.67 18.34 5.34 17.68 5 17 C4.01 16.67 3.02 16.34 2 16 C0.80911014 10.61972975 -0.2919519 5.54708616 0 0 Z " fill="#2BA964" transform="translate(260,480)"/>
<path d="M0 0 C0.33 0 0.66 0 1 0 C1.32996207 6.1592919 0.42974163 10.37514813 -2 16 C-2.28875 16.86625 -2.5775 17.7325 -2.875 18.625 C-4.43315153 21.91443101 -6.59155809 24.27465784 -9 27 C-9.66 26.67 -10.32 26.34 -11 26 C-10.61328125 25.48953125 -10.2265625 24.9790625 -9.828125 24.453125 C-4.46773318 16.96980572 -1.66291441 9.02254549 0 0 Z " fill="#C6F5ED" transform="translate(1214,456)"/>
<path d="M0 0 C0.33 0.66 0.66 1.32 1 2 C0.34 2 -0.32 2 -1 2 C-1 2.66 -1 3.32 -1 4 C-2.609375 5.33203125 -2.609375 5.33203125 -4.75 6.8125 C-8.10885943 9.22779291 -10.47792198 11.70189798 -13 15 C-13.66 15 -14.32 15 -15 15 C-15.33 15.99 -15.66 16.98 -16 18 C-16.66 17.67 -17.32 17.34 -18 17 C-5.64273205 2.82136602 -5.64273205 2.82136602 0 0 Z " fill="#42A14E" transform="translate(606,377)"/>
<path d="M0 0 C0.66 0.33 1.32 0.66 2 1 C1.01 2.485 1.01 2.485 0 4 C-0.66 4 -1.32 4 -2 4 C-2.09152344 4.59296875 -2.18304687 5.1859375 -2.27734375 5.796875 C-3.17232113 8.52534657 -4.33906301 9.47125041 -6.5625 11.25 C-7.20316406 11.77078125 -7.84382812 12.2915625 -8.50390625 12.828125 C-8.99761719 13.21484375 -9.49132812 13.6015625 -10 14 C-10.66 13.67 -11.32 13.34 -12 13 C-10.56354149 11.39490066 -9.12579294 9.79095576 -7.6875 8.1875 C-6.88699219 7.29417969 -6.08648438 6.40085938 -5.26171875 5.48046875 C-3.54775419 3.60073214 -1.82122396 1.77407253 0 0 Z " fill="#93BA2D" transform="translate(770,224)"/>
<path d="M0 0 C2.28280201 7.91139017 -0.82724158 14.79857624 -4 22 C-4.66 22 -5.32 22 -6 22 C-4.47536437 14.50387484 -2.31993846 7.28640866 0 0 Z " fill="#C4F5EB" transform="translate(187,430)"/>
<path d="M0 0 C-0.66 2.31 -1.32 4.62 -2 7 C-2.66 6.01 -3.32 5.02 -4 4 C-9.1693489 4.40556131 -9.1693489 4.40556131 -14 6 C-14.66 5.34 -15.32 4.68 -16 4 C-14.08594633 3.32586789 -12.16863974 2.6609668 -10.25 2 C-9.18265625 1.62875 -8.1153125 1.2575 -7.015625 0.875 C-4 0 -4 0 0 0 Z " fill="#739F35" transform="translate(753,307)"/>
<path d="M0 0 C0.99 0.33 1.98 0.66 3 1 C2.13375 1.9075 1.2675 2.815 0.375 3.75 C-3.81110769 8.58395769 -6.33088001 14.23583661 -9 20 C-10.53271273 15.41201223 -9.02911182 13.22055258 -7 9 C-6.34 9 -5.68 9 -5 9 C-5 8.01 -5 7.02 -5 6 C-4.34 6 -3.68 6 -3 6 C-2.690625 5.195625 -2.38125 4.39125 -2.0625 3.5625 C-1 1 -1 1 0 0 Z " fill="#EBFAD9" transform="translate(592,386)"/>
<path d="M0 0 C0.66 0 1.32 0 2 0 C0.44298069 4.67105792 -2.08447373 8.08705685 -5 12 C-6.32 11.67 -7.64 11.34 -9 11 C-8.67 9.35 -8.34 7.7 -8 6 C-7.01 7.485 -7.01 7.485 -6 9 C-5.67 7.68 -5.34 6.36 -5 5 C-4.34 5 -3.68 5 -3 5 C-2.690625 4.360625 -2.38125 3.72125 -2.0625 3.0625 C-1 1 -1 1 0 0 Z " fill="#659719" transform="translate(716,312)"/>
<path d="M0 0 C2.3125 -0.3125 2.3125 -0.3125 5 0 C6.8125 2.5 6.8125 2.5 8 5 C8.99 4.67 9.98 4.34 11 4 C13 7.75 13 7.75 13 10 C13.66 10 14.32 10 15 10 C14.67 10.66 14.34 11.32 14 12 C12.41419086 10.75314243 10.8314596 9.50236974 9.25 8.25 C8.36828125 7.55390625 7.4865625 6.8578125 6.578125 6.140625 C4.24152752 4.20054103 2.1061438 2.18487814 0 0 Z " fill="#4A8E25" transform="translate(658,288)"/>
<path d="M0 0 C0.99 0.495 0.99 0.495 2 1 C2 2.65 2 4.3 2 6 C2.66 6.33 3.32 6.66 4 7 C4.70491267 9.32206525 5.37212429 11.65593068 6 14 C6.33 14.33 6.66 14.66 7 15 C7.04063832 16.66617115 7.042721 18.33388095 7 20 C2.44578391 14.33659088 -0.77693274 7.38086103 0 0 Z " fill="#60981B" transform="translate(617,267)"/>
<path d="M0 0 C0.33 0 0.66 0 1 0 C1.18175781 1.08539063 1.36351562 2.17078125 1.55078125 3.2890625 C1.80419534 4.73446137 2.05812925 6.17976918 2.3125 7.625 C2.43044922 8.33785156 2.54839844 9.05070312 2.66992188 9.78515625 C3.48240214 14.32671259 4.79987786 17.89557046 7 22 C7 22.66 7 23.32 7 24 C4 23 4 23 3.0859375 21.42578125 C0.7166455 14.38299568 0.30492908 7.39190145 0 0 Z " fill="#DFF3C8" transform="translate(277,447)"/>
<path d="M0 0 C0.33 0 0.66 0 1 0 C1.5516321 9.19386837 -0.99202166 14.18013269 -7 21 C-7.66 20.67 -8.32 20.34 -9 20 C-8.60167969 19.47792969 -8.20335937 18.95585937 -7.79296875 18.41796875 C-3.56359111 12.54211806 -1.5038346 7.0574694 0 0 Z " fill="#D0FAF4" transform="translate(558,412)"/>
<path d="M0 0 C2.01869899 0.00352303 4.03640537 0.12181603 6.05078125 0.25390625 C2.6413906 3.12089384 -1.11948891 4.76224915 -5.19921875 6.44140625 C-5.84890625 6.71404297 -6.49859375 6.98667969 -7.16796875 7.26757812 C-8.75963771 7.93467467 -10.35414978 8.5949807 -11.94921875 9.25390625 C-12.27921875 8.59390625 -12.60921875 7.93390625 -12.94921875 7.25390625 C-12.13517578 6.99867188 -12.13517578 6.99867188 -11.3046875 6.73828125 C-6.71808911 5.34137699 -6.71808911 5.34137699 -3.44921875 2.06640625 C-1.94921875 0.25390625 -1.94921875 0.25390625 0 0 Z " fill="#3CA966" transform="translate(392.94921875,491.74609375)"/>
<path d="M0 0 C14.44179104 -0.39626866 14.44179104 -0.39626866 21 2 C21.33 2.99 21.66 3.98 22 5 C21.0821875 4.79503906 20.164375 4.59007812 19.21875 4.37890625 C12.82122192 2.97440691 6.51966333 1.65196633 0 1 C0 0.67 0 0.34 0 0 Z " fill="#D2F6E6" transform="translate(363,367)"/>
<path d="M0 0 C0.33 0 0.66 0 1 0 C0.8453125 1.5159375 0.8453125 1.5159375 0.6875 3.0625 C1.09617995 8.21186741 2.77792197 10.05295442 6 14 C5.01 14.495 5.01 14.495 4 15 C3.01 13.63875 3.01 13.63875 2 12.25 C-1.03836213 8.55493135 -4.65472888 6.83299278 -9 5 C-9 4.67 -9 4.34 -9 4 C-7.35 4 -5.7 4 -4 4 C-4 4.66 -4 5.32 -4 6 C-3.01 6 -2.02 6 -1 6 C-0.67 4.02 -0.34 2.04 0 0 Z " fill="#698E4F" transform="translate(688,339)"/>
<path d="M0 0 C1.32 0.33 2.64 0.66 4 1 C4 1.99 4 2.98 4 4 C4.91845703 4.37318359 4.91845703 4.37318359 5.85546875 4.75390625 C8.37359457 6.21707954 9.06046768 7.34158743 10.3125 9.9375 C10.65925781 10.62714844 11.00601563 11.31679688 11.36328125 12.02734375 C12 14 12 14 11 17 C9.72770057 15.10515026 8.45722296 13.20907718 7.1875 11.3125 C6.47980469 10.25675781 5.77210938 9.20101563 5.04296875 8.11328125 C3.29133435 5.44396458 1.61824006 2.75151858 0 0 Z " fill="#44A34D" transform="translate(997,460)"/>
<path d="M0 0 C0.84155274 2.35634766 1.22659167 3.50446308 0.1640625 5.828125 C-0.22007812 6.54484375 -0.60421875 7.2615625 -1 8 C-1.58923544 10.23801349 -2.12774917 12.48976895 -2.625 14.75 C-2.88539063 15.92046875 -3.14578125 17.0909375 -3.4140625 18.296875 C-3.60742188 19.18890625 -3.80078125 20.0809375 -4 21 C-4.66 21 -5.32 21 -6 21 C-5.55355616 13.41045469 -2.88499438 6.98360263 0 0 Z " fill="#59AA54" transform="translate(585,399)"/>
<path d="M0 0 C3.66786393 1.50349377 5.68910393 3.63728792 8.25 6.625 C8.95640625 7.44226563 9.6628125 8.25953125 10.390625 9.1015625 C10.92171875 9.72804688 11.4528125 10.35453125 12 11 C11.67 11.66 11.34 12.32 11 13 C10.7525 12.360625 10.505 11.72125 10.25 11.0625 C9.18437567 8.81258459 9.18437567 8.81258459 6.875 8.25 C6.25625 8.1675 5.6375 8.085 5 8 C4.67 6.68 4.34 5.36 4 4 C2.68 4.33 1.36 4.66 0 5 C-0.33 4.01 -0.66 3.02 -1 2 C-0.67 1.34 -0.34 0.68 0 0 Z " fill="#30A868" transform="translate(1193,380)"/>
<path d="M0 0 C0.33 0 0.66 0 1 0 C1.5304408 2.26860837 2.04905434 4.53998489 2.5625 6.8125 C2.85253906 8.07707031 3.14257812 9.34164063 3.44140625 10.64453125 C4 14 4 14 3 17 C0.1009238 12.78316189 -0.91343356 8.93133998 -2 4 C-1.34 4 -0.68 4 0 4 C0 2.68 0 1.36 0 0 Z " fill="#839D4A" transform="translate(707,350)"/>
<path d="M0 0 C0.66 0.33 1.32 0.66 2 1 C0.58791833 2.60820412 -0.82986036 4.21140708 -2.25 5.8125 C-3.03890625 6.70582031 -3.8278125 7.59914063 -4.640625 8.51953125 C-6.65879445 10.64128225 -8.59916705 12.34254423 -11 14 C-8.8527917 7.73730913 -5.24125182 3.93093886 0 0 Z " fill="#ECF8DA" transform="translate(722,310)"/>
<path d="M0 0 C0.66 0 1.32 0 2 0 C1.34 8.25 0.68 16.5 0 25 C-0.33 25 -0.66 25 -1 25 C-1.0289337 21.20834926 -1.04677601 17.41672673 -1.0625 13.625 C-1.07087891 12.54476563 -1.07925781 11.46453125 -1.08789062 10.3515625 C-1.09111328 9.3203125 -1.09433594 8.2890625 -1.09765625 7.2265625 C-1.10289307 6.27346191 -1.10812988 5.32036133 -1.11352539 4.33837891 C-1 2 -1 2 0 0 Z " fill="#30A66D" transform="translate(318,417)"/>
<path d="M0 0 C1.485 0.99 1.485 0.99 3 2 C3.34057617 3.87939453 3.34057617 3.87939453 3.29296875 6.1328125 C3.28330078 6.93847656 3.27363281 7.74414062 3.26367188 8.57421875 C3.23853516 9.41597656 3.21339844 10.25773437 3.1875 11.125 C3.17396484 11.97449219 3.16042969 12.82398438 3.14648438 13.69921875 C3.11108219 15.79974837 3.05727401 17.89995293 3 20 C2.67 20 2.34 20 2 20 C1.66131223 17.79248152 1.32928311 15.58394089 1 13.375 C0.814375 12.14523437 0.62875 10.91546875 0.4375 9.6484375 C0.04597484 6.3833973 -0.08080924 3.28287549 0 0 Z " fill="#E8FAD2" transform="translate(701,326)"/>
<path d="M0 0 C-1.56391593 3.83870274 -3.8734626 6.30972363 -7 9 C-9.8125 9.8125 -9.8125 9.8125 -12 10 C-3.78082192 0 -3.78082192 0 0 0 Z " fill="#5F9423" transform="translate(732,315)"/>
<path d="M0 0 C0 1.65 0 3.3 0 5 C-0.66 5 -1.32 5 -2 5 C-2.12375 5.804375 -2.2475 6.60875 -2.375 7.4375 C-2.58125 8.283125 -2.7875 9.12875 -3 10 C-3.99 10.495 -3.99 10.495 -5 11 C-4.01 8.03 -3.02 5.06 -2 2 C-5.63 2.66 -9.26 3.32 -13 4 C-10.84184495 1.84184495 -9.94361015 1.55101467 -7.0625 0.875 C-6.37285156 0.70742188 -5.68320312 0.53984375 -4.97265625 0.3671875 C-3 0 -3 0 0 0 Z " fill="#EBF7D5" transform="translate(755,305)"/>
<path d="M0 0 C-0.33 0.99 -0.66 1.98 -1 3 C-1.99 3 -2.98 3 -4 3 C-4.226875 3.598125 -4.45375 4.19625 -4.6875 4.8125 C-6.33811133 7.56351888 -8.1972081 8.52484637 -11 10 C-11 7 -11 7 -9.5390625 5.4296875 C-8.90742188 4.91664063 -8.27578125 4.40359375 -7.625 3.875 C-6.99851562 3.35679687 -6.37203125 2.83859375 -5.7265625 2.3046875 C-3.70000512 0.77330704 -2.56749236 0 0 0 Z " fill="#D7FAF0" transform="translate(337,398)"/>
<path d="M0 0 C0 3 0 3 -1.609375 4.7890625 C-2.31578125 5.39492187 -3.0221875 6.00078125 -3.75 6.625 C-4.44609375 7.23601562 -5.1421875 7.84703125 -5.859375 8.4765625 C-8.00032758 10.00023313 -9.40745161 10.68410125 -12 11 C-12.66 10.67 -13.32 10.34 -14 10 C-9.38 6.7 -4.76 3.4 0 0 Z " fill="#E1F5A9" transform="translate(772,221)"/>
<path d="M0 0 C0.66 0 1.32 0 2 0 C2 0.99 2 1.98 2 3 C2.66 3 3.32 3 4 3 C4.268125 4.0725 4.53625 5.145 4.8125 6.25 C5.74815876 9.92240854 5.74815876 9.92240854 7.6875 12.25 C8.3371875 13.11625 8.3371875 13.11625 9 14 C8.67 14.99 8.34 15.98 8 17 C6.65869239 14.73354942 5.32683766 12.46239903 4 10.1875 C3.42765625 9.22360352 3.42765625 9.22360352 2.84375 8.24023438 C0 3.33984375 0 3.33984375 0 0 Z " fill="#44A34A" transform="translate(583,465)"/>
<path d="M0 0 C0.99 0.33 1.98 0.66 3 1 C4.07772585 3.45449103 4.94623568 5.77041698 5.75 8.3125 C5.98332031 8.98990234 6.21664062 9.66730469 6.45703125 10.36523438 C7.64974931 14.01837981 8.14538159 16.3459509 7 20 C5.83072496 16.85512993 4.66501836 13.70894919 3.5 10.5625 C3.16613281 9.66466797 2.83226562 8.76683594 2.48828125 7.84179688 C2.17246094 6.98779297 1.85664063 6.13378906 1.53125 5.25390625 C1.09135742 4.06776733 1.09135742 4.06776733 0.64257812 2.85766602 C0 1 0 1 0 0 Z " fill="#D2FCF7" transform="translate(244,436)"/>
<path d="M0 0 C0.556875 0.6496875 0.556875 0.6496875 1.125 1.3125 C3.04417428 3.20781608 3.04417428 3.20781608 6.125 4.4375 C9 6 9 6 9.6796875 8.09765625 C9.83824219 9.03931641 9.83824219 9.03931641 10 10 C0.40546697 4.9977221 0.40546697 4.9977221 -3 1 C-2.01 0.67 -1.02 0.34 0 0 Z " fill="#699B2E" transform="translate(638,271)"/>
<path d="M0 0 C4.83540096 2.61111652 8.87103901 5.37457083 13 9 C12.01 9.495 12.01 9.495 11 10 C8.375 9.0625 8.375 9.0625 6 8 C6 7.34 6 6.68 6 6 C5.01 6 4.02 6 3 6 C0 2.66666667 0 2.66666667 0 0 Z " fill="#4F9623" transform="translate(667,262)"/>
<path d="M0 0 C0.33 1.32 0.66 2.64 1 4 C0.34 4 -0.32 4 -1 4 C-1.226875 4.556875 -1.45375 5.11375 -1.6875 5.6875 C-3.35896766 8.63246684 -5.55276352 10.68156544 -8 13 C-8.66 12.67 -9.32 12.34 -10 12 C-6.7 8.04 -3.4 4.08 0 0 Z " fill="#84AE2F" transform="translate(748,249)"/>
<path d="M0 0 C1.90747183 2.86120775 3.00353706 5.35254993 4.1875 8.5625 C4.55230469 9.53316406 4.91710937 10.50382812 5.29296875 11.50390625 C6 14 6 14 5 16 C0.82167521 10.87818251 0.25786427 6.52396607 0 0 Z " fill="#37AB76" transform="translate(242,432)"/>
<path d="M0 0 C2.64 0.66 5.28 1.32 8 2 C8.33 4.97 8.66 7.94 9 11 C8.443125 10.29875 7.88625 9.5975 7.3125 8.875 C4.90875268 5.88655739 2.46189568 2.94059762 0 0 Z " fill="#378119" transform="translate(687,326)"/>
<path d="M0 0 C1 2 1 2 0.3125 4.375 C-1.09398311 7.18796623 -2.67557877 8.9080209 -5 11 C-5.99 10.67 -6.98 10.34 -8 10 C-5.36 6.7 -2.72 3.4 0 0 Z " fill="#8BB02A" transform="translate(757,238)"/>
<path d="M0 0 C7.65606218 -0.19355213 14.66258031 -0.3479743 22 2 C22 2.33 22 2.66 22 3 C20.52093108 3.02689216 19.04172517 3.04634621 17.5625 3.0625 C16.32693359 3.07990234 16.32693359 3.07990234 15.06640625 3.09765625 C13 3 13 3 12 2 C9.98405418 1.76572222 7.961526 1.58663876 5.9375 1.4375 C4.83277344 1.35371094 3.72804688 1.26992188 2.58984375 1.18359375 C1.73519531 1.12300781 0.88054687 1.06242187 0 1 C0 0.67 0 0.34 0 0 Z " fill="#37A35A" transform="translate(1158,370)"/>
<path d="M0 0 C0.33 0 0.66 0 1 0 C1.33 3.3 1.66 6.6 2 10 C2.99 9.01 3.98 8.02 5 7 C4.67 8.98 4.34 10.96 4 13 C3.34 13 2.68 13 2 13 C1.67 13.99 1.34 14.98 1 16 C0.67 16 0.34 16 0 16 C0 10.72 0 5.44 0 0 Z " fill="#F0FAE1" transform="translate(708,329)"/>
<path d="M0 0 C2 2 2 2 2 5 C1.34 5 0.68 5 0 5 C0.226875 5.763125 0.45375 6.52625 0.6875 7.3125 C1 10 1 10 -0.3125 11.8125 C-2 13 -2 13 -4 13 C-3.52140759 11.39566191 -3.04210442 9.79153584 -2.5625 8.1875 C-2.29566406 7.29417969 -2.02882812 6.40085937 -1.75390625 5.48046875 C-1.19612127 3.64526945 -0.60655425 1.81966274 0 0 Z " fill="#4FAB53" transform="translate(133,475)"/>
<path d="M0 0 C0.68707555 2.49064888 1 4.37886292 1 7 C0.34 7 -0.32 7 -1 7 C-0.938125 8.1446875 -0.938125 8.1446875 -0.875 9.3125 C-1 12 -1 12 -3 15 C-3.66 15 -4.32 15 -5 15 C-1.92482916 4.44191344 -1.92482916 4.44191344 0 0 Z " fill="#5CAD5A" transform="translate(140,457)"/>
<path d="M0 0 C-1.32 0.33 -2.64 0.66 -4 1 C-3.34 2.65 -2.68 4.3 -2 6 C-4.97 5.01 -7.94 4.02 -11 3 C-8.15930939 0.15930939 -3.81147953 -1.90573977 0 0 Z " fill="#D3FBED" transform="translate(538,442)"/>
<path d="M0 0 C4.95 0 9.9 0 15 0 C15 0.33 15 0.66 15 1 C11.37 1 7.74 1 4 1 C4 2.32 4 3.64 4 5 C2.68 4.34 1.36 3.68 0 3 C0 2.01 0 1.02 0 0 Z " fill="#5A8A41" transform="translate(666,333)"/>
<path d="M0 0 C-1.15374939 3.46124816 -1.87701971 3.88312583 -4.875 5.75 C-5.57367187 6.19859375 -6.27234375 6.6471875 -6.9921875 7.109375 C-9 8 -9 8 -12 7 C-11.01 6.67 -10.02 6.34 -9 6 C-9 5.34 -9 4.68 -9 4 C-2.92 0 -2.92 0 0 0 Z " fill="#69A11D" transform="translate(731,303)"/>
<path d="M0 0 C0.66 0 1.32 0 2 0 C5 5.75 5 5.75 5 8 C5.66 8 6.32 8 7 8 C7.33 10.31 7.66 12.62 8 15 C4.57228865 11.0826156 0 5.47848189 0 0 Z " fill="#D5FBF7" transform="translate(552,468)"/>
<path d="M0 0 C1.74325447 2.6148817 2.41587957 4.0053433 3.125 6.9375 C3.29257813 7.60652344 3.46015625 8.27554687 3.6328125 8.96484375 C4 11 4 11 4 15 C3.34 15 2.68 15 2 15 C2 13.02 2 11.04 2 9 C1.34 9 0.68 9 0 9 C0 6.03 0 3.06 0 0 Z " fill="#3FAF7D" transform="translate(1211,405)"/>
<path d="M0 0 C-5.93891422 2.5915262 -10.54107286 3.40368295 -17 3 C-14.08149788 1.05433192 -12.42377152 0.4847543 -9.0625 -0.1875 C-8.20785156 -0.36667969 -7.35320312 -0.54585938 -6.47265625 -0.73046875 C-3.98865141 -1.00123705 -2.35550498 -0.77059444 0 0 Z " fill="#D8F9E7" transform="translate(388,410)"/>
<path d="M0 0 C1.31225809 3.93677426 0.3393954 5.7794262 -0.9375 9.6875 C-1.50791016 11.45673828 -1.50791016 11.45673828 -2.08984375 13.26171875 C-2.39019531 14.16535156 -2.69054687 15.06898438 -3 16 C-4.0219601 12.81815261 -3.94954615 10.67756672 -3.1875 7.4375 C-3.01605469 6.67308594 -2.84460938 5.90867187 -2.66796875 5.12109375 C-2 3 -2 3 0 0 Z " fill="#30A86C" transform="translate(194,404)"/>
<path d="M0 0 C1.32 0 2.64 0 4 0 C4 0.66 4 1.32 4 2 C4.66 2 5.32 2 6 2 C8.32590854 5.63423209 8.16265833 8.77088331 8 13 C6.01999812 10.02999718 4.53121208 7.05180034 3 3.83984375 C2.02166889 1.83260604 2.02166889 1.83260604 0 0 Z " fill="#50AA54" transform="translate(1165,405)"/>
<path d="M0 0 C2.69651428 1.01402533 3.81056399 1.66965634 5.265625 4.20703125 C5.59046875 5.06683594 5.9153125 5.92664063 6.25 6.8125 C6.75273438 8.09060547 6.75273438 8.09060547 7.265625 9.39453125 C8.01711191 12.06071086 8.13846545 14.24552666 8 17 C6.34717337 14.52076006 5.18219393 12.33111579 4 9.625 C3.65453125 8.83480469 3.3090625 8.04460937 2.953125 7.23046875 C1.92950723 4.83503536 0.94040278 2.42937385 0 0 Z " fill="#D3FBF7" transform="translate(706,394)"/>
<path d="M0 0 C-2.9180769 1.56349617 -5.75543117 2.59784181 -8.9375 3.5 C-12.37918181 4.50149382 -15.70563866 5.57244342 -19 7 C-19 6.34 -19 5.68 -19 5 C-12.53732963 1.97282325 -7.23932234 -0.20683778 0 0 Z " fill="#E8F5C9" transform="translate(756,204)"/>
<path d="M0 0 C0.66 0 1.32 0 2 0 C0.68 5.28 -0.64 10.56 -2 16 C-2.33 16 -2.66 16 -3 16 C-3.33266291 9.79029227 -2.45029331 5.71735105 0 0 Z " fill="#31AA6F" transform="translate(170,480)"/>
<path d="M0 0 C0.66 0.33 1.32 0.66 2 1 C2 1.99 2 2.98 2 4 C1.34 4 0.68 4 0 4 C0.061875 5.27875 0.12375 6.5575 0.1875 7.875 C0.29296875 10.0546875 0.29296875 10.0546875 0 12 C-0.99 12.66 -1.98 13.32 -3 14 C-2.48594831 9.03083364 -1.76615118 4.70973649 0 0 Z " fill="#C0F4E0" transform="translate(195,404)"/>
<path d="M0 0 C2 1 2 1 3.0625 2.9375 C4.37784905 7.23430691 4.67036215 11.53253967 5 16 C2.70311431 13.70311431 2.28148697 12.21071829 1.375 9.125 C1.11460937 8.26132812 0.85421875 7.39765625 0.5859375 6.5078125 C0 4 0 4 0 0 Z " fill="#48A449" transform="translate(199,412)"/>
<path d="M0 0 C0.33 0 0.66 0 1 0 C0.88570603 1.77155654 0.75816963 3.54226229 0.625 5.3125 C0.55539063 6.29863281 0.48578125 7.28476562 0.4140625 8.30078125 C0 11 0 11 -2 14 C-2.66 13.67 -3.32 13.34 -4 13 C-2.68 8.71 -1.36 4.42 0 0 Z " fill="#CEF8F2" transform="translate(169,490)"/>
<path d="M0 0 C0.66 0 1.32 0 2 0 C3.54296875 2.046875 3.54296875 2.046875 5.1875 4.75 C5.73792969 5.63171875 6.28835938 6.5134375 6.85546875 7.421875 C8 10 8 10 7.67578125 12.328125 C7.45277344 12.87984375 7.22976563 13.4315625 7 14 C6.01441551 12.42065361 5.03677459 10.83634827 4.0625 9.25 C3.51722656 8.36828125 2.97195313 7.4865625 2.41015625 6.578125 C1.17284288 4.31600083 0.46409487 2.51433675 0 0 Z " fill="#48A44D" transform="translate(513,484)"/>
<path d="M0 0 C0.33 0 0.66 0 1 0 C1.13277344 0.81984375 1.26554687 1.6396875 1.40234375 2.484375 C1.57894531 3.56203125 1.75554687 4.6396875 1.9375 5.75 C2.11152344 6.81734375 2.28554688 7.8846875 2.46484375 8.984375 C2.88704171 11.36347593 3.37202884 13.66915211 4 16 C3.01 15.67 2.02 15.34 1 15 C-0.09506492 11.71480525 -0.09960608 9.26336585 -0.0625 5.8125 C-0.05347656 4.72582031 -0.04445313 3.63914062 -0.03515625 2.51953125 C-0.02355469 1.68808594 -0.01195312 0.85664063 0 0 Z " fill="#37AD7B" transform="translate(318,444)"/>
<path d="M0 0 C0.6875 1.6875 0.6875 1.6875 1 4 C-0.25 6.6875 -0.25 6.6875 -2 9 C-2.99 9.33 -3.98 9.66 -5 10 C-3.84414715 6.08788267 -2.64465038 3.1254959 0 0 Z " fill="#48A851" transform="translate(288,394)"/>
<path d="M0 0 C-2.1234016 0.83739781 -4.2487728 1.66980283 -6.375 2.5 C-7.55835938 2.9640625 -8.74171875 3.428125 -9.9609375 3.90625 C-13 5 -13 5 -15 5 C-14.67 3.68 -14.34 2.36 -14 1 C-13.278125 1.04125 -12.55625 1.0825 -11.8125 1.125 C-8.97154708 1.15918733 -8.97154708 1.15918733 -6.4375 -0.0625 C-3.66929993 -1.12719233 -2.74988282 -0.83135992 0 0 Z " fill="#599023" transform="translate(731,343)"/>
<path d="M0 0 C0.99 0.33 1.98 0.66 3 1 C1.85845641 2.83600745 0.71165684 4.66874805 -0.4375 6.5 C-1.07558594 7.5209375 -1.71367188 8.541875 -2.37109375 9.59375 C-2.90863281 10.3878125 -3.44617188 11.181875 -4 12 C-4.33 12 -4.66 12 -5 12 C-5 10.02 -5 8.04 -5 6 C-3.68 5.67 -2.36 5.34 -1 5 C-0.67 3.35 -0.34 1.7 0 0 Z " fill="#7EA82A" transform="translate(716,268)"/>
<path d="M0 0 C0.33 0.66 0.66 1.32 1 2 C-1.16798732 7.4770206 -1.16798732 7.4770206 -4.1875 9.375 C-4.785625 9.58125 -5.38375 9.7875 -6 10 C-6 10.66 -6 11.32 -6 12 C-6.66 11.67 -7.32 11.34 -8 11 C-5.36 7.37 -2.72 3.74 0 0 Z " fill="#87AD37" transform="translate(737,262)"/>
<path d="M0 0 C1.24211322 3.58832708 0.93335834 6.3443465 0 10 C-1.4375 11.875 -1.4375 11.875 -3 13 C-3.66 13 -4.32 13 -5 13 C-3.58192622 8.52761347 -1.88695626 4.28853694 0 0 Z " fill="#E6F3C6" transform="translate(805,251)"/>
<path d="M0 0 C0.99 0.33 1.98 0.66 3 1 C0.03 3.97 -2.94 6.94 -6 10 C-6.33 9.01 -6.66 8.02 -7 7 C-6.01 6.67 -5.02 6.34 -4 6 C-3.26676204 3.98491642 -3.26676204 3.98491642 -3 2 C-2.01 2 -1.02 2 0 2 C0 1.34 0 0.68 0 0 Z " fill="#7FA825" transform="translate(731,251)"/>
<path d="M0 0 C0.66 0.33 1.32 0.66 2 1 C-0.10515339 4.72450216 -1.24267224 6.6795921 -5.25 8.375 C-6.61125 8.684375 -6.61125 8.684375 -8 9 C-7.04270084 7.87411986 -6.08412105 6.7493285 -5.125 5.625 C-4.59132813 4.99851563 -4.05765625 4.37203125 -3.5078125 3.7265625 C-2.38567993 2.44163349 -1.20628025 1.20628025 0 0 Z " fill="#ECF7D0" transform="translate(742,243)"/>
<path d="M0 0 C0.99 0.33 1.98 0.66 3 1 C3.984375 3.14453125 3.984375 3.14453125 4.75 5.8125 C5.01296875 6.68519531 5.2759375 7.55789063 5.546875 8.45703125 C6 11 6 11 5 15 C3.35 10.05 1.7 5.1 0 0 Z " fill="#D6FCF8" transform="translate(262,484)"/>
<path d="M0 0 C1.32 0.33 2.64 0.66 4 1 C4 1.99 4 2.98 4 4 C4.66 4 5.32 4 6 4 C6.66 6.31 7.32 8.62 8 11 C4.31993178 7.61831569 2.0214155 4.57478244 0 0 Z " fill="#4AA54D" transform="translate(983,439)"/>
<path d="M0 0 C3 3 3 3 3.29296875 6.13671875 C3.25816406 7.30847656 3.22335937 8.48023438 3.1875 9.6875 C3.16042969 10.86699219 3.13335938 12.04648437 3.10546875 13.26171875 C3.07066406 14.16535156 3.03585937 15.06898438 3 16 C2.67 16 2.34 16 2 16 C1.34 10.72 0.68 5.44 0 0 Z " fill="#D6FCF8" transform="translate(714,411)"/>
<path d="M0 0 C0.66 0 1.32 0 2 0 C2.05422947 1.4370809 2.09289723 2.87475462 2.125 4.3125 C2.14820313 5.11300781 2.17140625 5.91351563 2.1953125 6.73828125 C2 9 2 9 0 12 C-0.66 12 -1.32 12 -2 12 C-1.34 8.04 -0.68 4.08 0 0 Z " fill="#53A851" transform="translate(517,406)"/>
<path d="M0 0 C0.66 0 1.32 0 2 0 C2.86627399 1.59766103 3.71766465 3.20339944 4.5625 4.8125 C5.27599609 6.15248047 5.27599609 6.15248047 6.00390625 7.51953125 C7 10 7 10 6 13 C2.85487785 8.70166639 1.24303439 5.17930997 0 0 Z " fill="#C9F6EE" transform="translate(320,454)"/>
<path d="M0 0 C0.66 0 1.32 0 2 0 C2 0.66 2 1.32 2 2 C2.66 2 3.32 2 4 2 C4.33 2.66 4.66 3.32 5 4 C5.66 3.67 6.32 3.34 7 3 C7 5.31 7 7.62 7 10 C3.66442368 7.0094833 1.84916079 4.06815373 0 0 Z " fill="#D5FBED" transform="translate(1019,432)"/>
<path d="M0 0 C0.66 0 1.32 0 2 0 C0.68139111 4.61513112 -1.21355437 8.09897612 -4 12 C-5 9 -5 9 -4 6 C-3.34 6 -2.68 6 -2 6 C-1.34 4.02 -0.68 2.04 0 0 Z " fill="#5D8F22" transform="translate(745,323)"/>
<path d="M0 0 C1.125 3.75 1.125 3.75 0 6 C-0.66 6 -1.32 6 -2 6 C-2 7.98 -2 9.96 -2 12 C-2.99 12 -3.98 12 -5 12 C-3.85814266 7.52040582 -2.56984833 3.85477249 0 0 Z " fill="#E7F4CD" transform="translate(709,283)"/>
<path d="M0 0 C2.40072955 2.88087546 4.47291037 5.56404834 6 9 C5.01 9.495 5.01 9.495 4 10 C4 9.34 4 8.68 4 8 C3.01 8 2.02 8 1 8 C0.67 5.36 0.34 2.72 0 0 Z " fill="#34AB6E" transform="translate(994,396)"/>
<path d="M0 0 C2.05078125 0.03255208 4.1015625 0.06510417 6.15234375 0.09765625 C-1.34765625 5.09765625 -1.34765625 5.09765625 -4.84765625 5.09765625 C-2.44354091 0.12915121 -2.44354091 0.12915121 0 0 Z " fill="#35A463" transform="translate(334.84765625,395.90234375)"/>
<path d="M0 0 C0.66 0.66 1.32 1.32 2 2 C1.34 3.98 0.68 5.96 0 8 C-1.32 7.67 -2.64 7.34 -4 7 C-3.6875 5.0625 -3.6875 5.0625 -3 3 C-2.01 2.67 -1.02 2.34 0 2 C0 1.34 0 0.68 0 0 Z " fill="#2C8B07" transform="translate(686,304)"/>
<path d="M0 0 C0 0.66 0 1.32 0 2 C-2.31 2.33 -4.62 2.66 -7 3 C-7 3.66 -7 4.32 -7 5 C-8.65 5 -10.3 5 -12 5 C-8.55392327 1.00980589 -5.20909181 0 0 0 Z " fill="#E1F3C2" transform="translate(748,298)"/>
<path d="M0 0 C4.455 2.97 4.455 2.97 9 6 C8.67 6.99 8.34 7.98 8 9 C6.84775972 8.07038578 5.70340824 7.1309875 4.5625 6.1875 C3.60537109 5.40439453 3.60537109 5.40439453 2.62890625 4.60546875 C1 3 1 3 0 0 Z " fill="#D2EFB1" transform="translate(630,269)"/>
<path d="M0 0 C3.14958831 3.42346555 3.56179109 6.44262737 4 11 C3.34 11 2.68 11 2 11 C0.80712589 7.12315913 0 4.08378077 0 0 Z " fill="#E3F4CC" transform="translate(670,411)"/>
<path d="M0 0 C0.33 0 0.66 0 1 0 C1 2.64 1 5.28 1 8 C0.34 8 -0.32 8 -1 8 C-1 8.99 -1 9.98 -1 11 C-1.66 11 -2.32 11 -3 11 C-2.69078116 9.54096742 -2.37751201 8.08279278 -2.0625 6.625 C-1.88847656 5.81289063 -1.71445312 5.00078125 -1.53515625 4.1640625 C-1 2 -1 2 0 0 Z " fill="#4BA750" transform="translate(282,405)"/>
<path d="M0 0 C2.38672669 2.96283313 4.7353371 5.94270509 7 9 C6.67 9.66 6.34 10.32 6 11 C5.7525 10.38125 5.505 9.7625 5.25 9.125 C3.79371361 6.64931313 2.62187494 6.04874998 0 5 C0 3.35 0 1.7 0 0 Z " fill="#30A96E" transform="translate(1000,405)"/>
<path d="M0 0 C3.3 1.98 6.6 3.96 10 6 C5.76490243 7.05877439 4.64440328 7.16694249 1 5 C0.67 3.35 0.34 1.7 0 0 Z " fill="#378324" transform="translate(666,302)"/>
<path d="M0 0 C1.64846769 0.44876616 3.29373455 0.90930488 4.9375 1.375 C5.85402344 1.63023437 6.77054688 1.88546875 7.71484375 2.1484375 C10 3 10 3 11 5 C9.3733152 4.71788123 7.74867104 4.42397625 6.125 4.125 C4.76761719 3.88136719 4.76761719 3.88136719 3.3828125 3.6328125 C1 3 1 3 -1 1 C-0.67 0.67 -0.34 0.34 0 0 Z " fill="#5B9527" transform="translate(655,257)"/>
<path d="M0 0 C0.33 0.99 0.66 1.98 1 3 C-0.26132231 5.52264461 -1.61438008 6.52652887 -4 8 C-4.99 7.67 -5.98 7.34 -7 7 C-4.69 4.69 -2.38 2.38 0 0 Z " fill="#EDF8D2" transform="translate(733,252)"/>
<path d="M0 0 C0.66 0 1.32 0 2 0 C1.55005243 1.79379098 1.08975857 3.58498928 0.625 5.375 C0.36976563 6.37273437 0.11453125 7.37046875 -0.1484375 8.3984375 C-1 11 -1 11 -3 13 C-2.69240822 11.02006459 -2.3787932 9.04106401 -2.0625 7.0625 C-1.88847656 5.96035156 -1.71445313 4.85820312 -1.53515625 3.72265625 C-1 1 -1 1 0 0 Z " fill="#F0FCD7" transform="translate(132,473)"/>
<path d="M0 0 C0.66 0 1.32 0 2 0 C0.68775452 3.93673644 -0.91910327 6.22719294 -4 9 C-4 7.68 -4 6.36 -4 5 C-3.34 5 -2.68 5 -2 5 C-2 4.01 -2 3.02 -2 2 C-1.34 2 -0.68 2 0 2 C0 1.34 0 0.68 0 0 Z " fill="#35AB72" transform="translate(553,423)"/>
<path d="M0 0 C6.64615385 3.32307692 6.64615385 3.32307692 8.4375 6.75 C8.623125 7.4925 8.80875 8.235 9 9 C5.4781747 7.04343039 2.65557215 5.04899025 0 2 C0 1.34 0 0.68 0 0 Z " fill="#E8FADB" transform="translate(1161,403)"/>
<path d="M0 0 C3.24299151 2.38957269 5.50902342 4.2047869 7 8 C3.34683329 6.75023244 2.21934164 6.32901247 0 3 C0 2.01 0 1.02 0 0 Z " fill="#35A86C" transform="translate(698,385)"/>
<path d="M0 0 C1.98 0.66 3.96 1.32 6 2 C6 3.98 6 5.96 6 8 C1.125 3.375 1.125 3.375 0 0 Z " fill="#558E22" transform="translate(624,287)"/>
<path d="M0 0 C0.5625 1.9375 0.5625 1.9375 1 4 C0.67 4.33 0.34 4.66 0 5 C-0.36760731 7.32817964 -0.70241581 9.6618385 -1 12 C-1.66 12 -2.32 12 -3 12 C-2.88541307 10.56163249 -2.75790884 9.12429034 -2.625 7.6875 C-2.55539062 6.88699219 -2.48578125 6.08648437 -2.4140625 5.26171875 C-2 3 -2 3 0 0 Z " fill="#F2FCD6" transform="translate(812,231)"/>
<path d="M0 0 C0.66 0.33 1.32 0.66 2 1 C1.01 2.485 1.01 2.485 0 4 C-0.66 4 -1.32 4 -2 4 C-2 4.99 -2 5.98 -2 7 C-3.65 7.33 -5.3 7.66 -7 8 C-6.02133662 6.85373678 -5.04205413 5.70800212 -4.0625 4.5625 C-3.51722656 3.92441406 -2.97195313 3.28632813 -2.41015625 2.62890625 C-1.63204305 1.73008851 -0.84063472 0.84063472 0 0 Z " fill="#9ABD34" transform="translate(770,224)"/>
<path d="M0 0 C1.43655854 -0.08131463 2.8744483 -0.13933559 4.3125 -0.1875 C5.51326172 -0.23970703 5.51326172 -0.23970703 6.73828125 -0.29296875 C9.47851584 0.06198392 10.29171079 0.89366282 12 3 C10.56163249 2.88541307 9.12429034 2.75790884 7.6875 2.625 C6.88699219 2.55539062 6.08648437 2.48578125 5.26171875 2.4140625 C3 2 3 2 0 0 Z " fill="#46A65E" transform="translate(320,501)"/>
<path d="M0 0 C1 2 1 2 0.4375 4.5625 C-1 7 -1 7 -4.125 7.8125 C-5.548125 7.9053125 -5.548125 7.9053125 -7 8 C-7 7.34 -7 6.68 -7 6 C-5.33720673 4.9935725 -3.67016516 3.99414593 -2 3 C-1.34 2.01 -0.68 1.02 0 0 Z " fill="#44A754" transform="translate(1169,463)"/>
<path d="M0 0 C1.9375 0.625 1.9375 0.625 4 2 C4.75 5.125 4.75 5.125 5 8 C2.5 5.6875 2.5 5.6875 0 3 C0 2.01 0 1.02 0 0 Z " fill="#DAFDF7" transform="translate(623,458)"/>
<path d="M0 0 C0.33 0.66 0.66 1.32 1 2 C-1.45614035 7 -1.45614035 7 -3 9 C-3.99 9.33 -4.98 9.66 -6 10 C-4.6302836 6.00499382 -2.74277578 3.19990508 0 0 Z " fill="#75A029" transform="translate(720,289)"/>
<path d="M0 0 C1.98 0 3.96 0 6 0 C4.68 0.33 3.36 0.66 2 1 C1.87625 1.78375 1.7525 2.5675 1.625 3.375 C1 6 1 6 -1 8 C-0.67 5.36 -0.34 2.72 0 0 Z " fill="#D6FAF2" transform="translate(171,482)"/>
<path d="M0 0 C3.63 1.32 7.26 2.64 11 4 C11 4.33 11 4.66 11 5 C7.7 4.67 4.4 4.34 1 4 C0.67 2.68 0.34 1.36 0 0 Z " fill="#3CA668" transform="translate(331,471)"/>
<path d="M0 0 C0.33 0 0.66 0 1 0 C1.36923077 6.52307692 1.36923077 6.52307692 -0.5 8.9375 C-0.995 9.288125 -1.49 9.63875 -2 10 C-3 8 -3 8 -2.44140625 6.0546875 C-2.15136719 5.33539063 -1.86132812 4.61609375 -1.5625 3.875 C-1.27503906 3.15054687 -0.98757812 2.42609375 -0.69140625 1.6796875 C-0.46324219 1.12539063 -0.23507813 0.57109375 0 0 Z " fill="#59AE58" transform="translate(144,446)"/>
<path d="M0 0 C2.45823172 3.68734758 3.01242616 6.69699971 4 11 C3.01 11 2.02 11 1 11 C0.67 7.37 0.34 3.74 0 0 Z " fill="#41AF80" transform="translate(710,402)"/>
<path d="M0 0 C2.18975773 3.28463659 2.99806563 6.20696275 4 10 C2.68 9.34 1.36 8.68 0 8 C0 5.36 0 2.72 0 0 Z " fill="#3AB078" transform="translate(221,376)"/>
<path d="M0 0 C2.3125 -0.3125 2.3125 -0.3125 5 0 C6.75 2.375 6.75 2.375 8 5 C8.33 5.66 8.66 6.32 9 7 C5.18315774 5.44499019 2.80804268 2.96404505 0 0 Z " fill="#5D9338" transform="translate(658,288)"/>
<path d="M0 0 C0 0.66 0 1.32 0 2 C-1.53125 3.2890625 -1.53125 3.2890625 -3.5 4.625 C-4.1496875 5.07101562 -4.799375 5.51703125 -5.46875 5.9765625 C-5.9740625 6.31429688 -6.479375 6.65203125 -7 7 C-4.60526316 0 -4.60526316 0 0 0 Z " fill="#6CA50A" transform="translate(731,278)"/>
<path d="M0 0 C2.84262206 1.42131103 3.59335994 3.18671989 5 6 C5.1875 8.8125 5.1875 8.8125 5 11 C0 4.63636364 0 4.63636364 0 0 Z " fill="#67952D" transform="translate(619,276)"/>
<path d="M0 0 C2.64 0 5.28 0 8 0 C8 0.66 8 1.32 8 2 C8.99 2.33 9.98 2.66 11 3 C9 4 9 4 6.8359375 3.44140625 C6.02382813 3.15136719 5.21171875 2.86132812 4.375 2.5625 C3.55773437 2.27503906 2.74046875 1.98757813 1.8984375 1.69140625 C1.27195312 1.46324219 0.64546875 1.23507812 0 1 C0 0.67 0 0.34 0 0 Z " fill="#D7EDC3" transform="translate(651,255)"/>
<path d="M0 0 C0.66 0.33 1.32 0.66 2 1 C0.68 4.63 -0.64 8.26 -2 12 C-3.22268689 7.10925243 -2.20961767 4.41923534 0 0 Z " fill="#F3FCD9" transform="translate(703,245)"/>
<path d="M0 0 C2.18975773 3.28463659 2.99806563 6.20696275 4 10 C3.01 9.67 2.02 9.34 1 9 C0.67 6.03 0.34 3.06 0 0 Z " fill="#3CAF7D" transform="translate(260,480)"/>
<path d="M0 0 C0.66 0.33 1.32 0.66 2 1 C-1.44615385 5.8 -1.44615385 5.8 -4.25 6.8125 C-5.11625 6.9053125 -5.11625 6.9053125 -6 7 C-6 6.34 -6 5.68 -6 5 C-2.53846154 2 -2.53846154 2 0 2 C0 1.34 0 0.68 0 0 Z " fill="#E6F9D9" transform="translate(667,463)"/>
<path d="M0 0 C2.18975773 3.28463659 2.99806563 6.20696275 4 10 C3.01 10 2.02 10 1 10 C0.67 6.7 0.34 3.4 0 0 Z " fill="#3DAF7A" transform="translate(248,448)"/>
<path d="M0 0 C1.64350079 3.28700157 2.41321669 5.47930015 3 9 C2.01 9.33 1.02 9.66 0 10 C0 6.7 0 3.4 0 0 Z " fill="#E0F1CA" transform="translate(207,441)"/>
<path d="M0 0 C0.33 0 0.66 0 1 0 C1.25 6.625 1.25 6.625 -1 10 C-1.66 10 -2.32 10 -3 10 C-2.01 6.7 -1.02 3.4 0 0 Z " fill="#50A852" transform="translate(158,409)"/>
<path d="M0 0 C2.31 0.33 4.62 0.66 7 1 C7.33 2.65 7.66 4.3 8 6 C6.66402348 5.19185349 5.331275 4.37836819 4 3.5625 C3.2575 3.11003906 2.515 2.65757812 1.75 2.19140625 C1.1725 1.79824219 0.595 1.40507812 0 1 C0 0.67 0 0.34 0 0 Z " fill="#42A351" transform="translate(360,398)"/>
<path d="M0 0 C2.0625 2.3125 2.0625 2.3125 4 5 C3.67 5.99 3.34 6.98 3 8 C2.34 8 1.68 8 1 8 C-0.35439668 5.29120665 -0.06501451 2.99066732 0 0 Z " fill="#38AB71" transform="translate(552,384)"/>
<path d="M0 0 C0 0.66 0 1.32 0 2 C-4.15267176 5.11450382 -4.15267176 5.11450382 -7.3125 4.6875 C-7.869375 4.460625 -8.42625 4.23375 -9 4 C-2.25 0 -2.25 0 0 0 Z " fill="#4EA95E" transform="translate(316,372)"/>
<path d="M0 0 C-1.75 4.875 -1.75 4.875 -4 6 C-4.33 5.01 -4.66 4.02 -5 3 C-5.66 2.67 -6.32 2.34 -7 2 C-2.25 0 -2.25 0 0 0 Z " fill="#F0F9D5" transform="translate(762,231)"/>
<path d="M0 0 C3 1 3 1 4.75 3.9375 C5.1625 4.948125 5.575 5.95875 6 7 C5.67 7.66 5.34 8.32 5 9 C4.16094435 7.87926138 3.32892169 6.75325453 2.5 5.625 C2.0359375 4.99851562 1.571875 4.37203125 1.09375 3.7265625 C0 2 0 2 0 0 Z " fill="#46A44D" transform="translate(991,450)"/>
<path d="M0 0 C1.32 0.33 2.64 0.66 4 1 C1.03 3.475 1.03 3.475 -2 6 C-2.33 5.34 -2.66 4.68 -3 4 C-2.34 4 -1.68 4 -1 4 C-0.67 2.68 -0.34 1.36 0 0 Z " fill="#32A969" transform="translate(545,432)"/>
<path d="M0 0 C0.99 0.33 1.98 0.66 3 1 C1.625 2.5 1.625 2.5 0 4 C-0.66 4 -1.32 4 -2 4 C-2.33 4.99 -2.66 5.98 -3 7 C-3.66 6.67 -4.32 6.34 -5 6 C-3.35 4.02 -1.7 2.04 0 0 Z " fill="#4CA951" transform="translate(593,388)"/>
<path d="M0 0 C0.99 0.33 1.98 0.66 3 1 C1.35 2.98 -0.3 4.96 -2 7 C-2.33 6.01 -2.66 5.02 -3 4 C-2.67 3.34 -2.34 2.68 -2 2 C-1.34 2 -0.68 2 0 2 C0 1.34 0 0.68 0 0 Z " fill="#EEF9D8" transform="translate(740,255)"/>
</svg>
